<svg version="1.2" baseProfile="tiny-ps" xmlns="http://www.w3.org/2000/svg" viewBox="0 0 484 427" width="484" height="427">
	<title>5572497-ai</title>
	<style>
		tspan { white-space:pre }
		.shp0 { fill: #e6eeff } 
		.shp1 { fill: #ebf1ff } 
		.shp2 { fill: #fb9300 } 
		.shp3 { fill: #ffffff } 
		.txt4 { font-size: 6px;fill: #f54748;font-weight: 400;font-family: "Montserrat-Regular", "Montserrat" } 
		.shp5 { fill: #f5e0c4 } 
		.shp6 { fill: #343f56 } 
		.shp7 { fill: #d4dffc } 
		.shp8 { mix-blend-mode: multiply;fill: #d4dffc } 
		.txt9 { font-size: 23px;fill: #343f56;font-weight: 900;font-family: "Montserrat-Black", "Montserrat" } 
	</style>
	<g id="OBJECTS">
		<g id="&lt;Group&gt;">
			<g id="&lt;Group&gt;">
				<g id="&lt;Group&gt;">
					<path id="&lt;Path&gt;" class="shp0" d="M764.03 -403.23C738.31 -400.1 715.71 -393.1 696.4 -382.3C679.52 -372.86 665.12 -360.53 653.29 -345.31C652.88 -344.78 652.5 -344.23 652.09 -343.72C637.85 -340.82 622.25 -342.94 608.88 -350.02C620.24 -342.32 634.23 -338.22 648.4 -338.6C638.29 -323.96 631.22 -308.08 626.58 -291.85C623.57 -281.31 621.57 -270.64 620.44 -260.07C609.68 -282.8 607.12 -302.92 606.92 -322.63C590.09 -316.12 569.84 -320.01 556.26 -331.9C542.68 -343.79 536.12 -362.99 538.99 -380.8C539.78 -385.65 541.25 -390.35 543.28 -394.81C548.71 -406.73 558.26 -416.8 569.94 -422.82C584.83 -430.45 602.83 -431.46 618.7 -426.15C618.65 -425.91 618.58 -425.65 618.53 -425.41C617.76 -421.86 617.34 -418.43 616.48 -415.13C615.63 -411.83 614.36 -408.64 612.57 -405.69C610.81 -402.75 608.45 -400.12 605.67 -397.98C608.69 -399.74 611.44 -402.1 613.68 -404.92C615.88 -407.74 617.64 -410.96 618.96 -414.33C620.39 -417.98 621.28 -421.83 622.72 -425.5C625.86 -433.58 632.18 -440.72 639.21 -445.65C646.39 -450.69 654.93 -453.73 663.69 -454.28C667.58 -454.5 671.48 -454.24 675.27 -453.54C679.38 -452.77 683.38 -451.48 687.19 -449.72C700.6 -443.48 710.64 -431.82 713.77 -417.27C713.85 -421.16 713.34 -424.99 712.54 -428.79C712.33 -429.82 712.08 -430.83 711.8 -431.85C720.32 -438.19 732.09 -440 742.1 -436.33C751.96 -432.71 765.31 -420.7 764.03 -403.23Z" />
				</g>
				<g id="&lt;Group&gt;" style="mix-blend-mode: multiply">
					<path id="&lt;Path&gt;" class="shp1" d="M626.58 -291.85C623.57 -281.31 621.57 -270.64 620.44 -260.07C609.68 -282.8 607.12 -302.92 606.92 -322.63C590.09 -316.12 569.84 -320.01 556.26 -331.9C542.68 -343.79 536.12 -362.99 538.99 -380.8C539.78 -385.65 541.25 -390.35 543.28 -394.81C542.99 -393.54 542.75 -392.26 542.58 -390.98C540.99 -379.61 543.77 -367.7 550.2 -358.19C556.57 -348.78 566.32 -341.88 577.04 -338.17C588.95 -334.07 602.13 -333.78 614.21 -337.38C614.96 -321.21 619.06 -305.87 626.58 -291.85Z" />
				</g>
				<g id="&lt;Group&gt;" style="mix-blend-mode: multiply">
					<path id="&lt;Path&gt;" class="shp1" d="M764.03 -403.23C738.31 -400.1 715.71 -393.1 696.4 -382.3C699.37 -390.67 701.2 -399.47 701.21 -408.33C701.23 -418.67 698.68 -429.14 693.12 -437.85C688.78 -444.59 682.54 -450.23 675.27 -453.54C679.38 -452.77 683.38 -451.48 687.19 -449.72C700.6 -443.48 710.64 -431.82 713.77 -417.27C713.85 -421.16 713.34 -424.99 712.54 -428.79C712.33 -429.82 712.08 -430.83 711.8 -431.85C720.32 -438.19 732.09 -440 742.1 -436.33C751.96 -432.71 765.31 -420.7 764.03 -403.23Z" />
				</g>
				<g id="&lt;Group&gt;">
					<path id="&lt;Path&gt;" class="shp2" d="M871.96 -375.64C871.26 -371.92 870.33 -368.25 869.19 -364.64C865.98 -354.52 860.85 -345.02 853.75 -337.09C848.2 -330.91 841.55 -325.79 834.21 -321.89C829.45 -319.35 824.42 -317.37 819.21 -315.88C810.11 -313.3 800.67 -312.11 791.19 -311.82C791.05 -311.8 790.91 -311.8 790.78 -311.8C783.06 -311.59 775.32 -311.99 767.72 -312.76C775.3 -311.34 783.01 -310.45 790.76 -310.09C793.17 -309.99 795.59 -309.92 798.02 -309.92C801.08 -309.9 804.13 -309.97 807.17 -310.14C808.23 -310.19 809.29 -310.26 810.35 -310.33C810.37 -310.33 810.37 -310.26 810.37 -310.11C810.37 -309.87 810.33 -309.37 810.25 -308.71C809.96 -305.62 809.12 -299.11 808.95 -298.31C808.22 -294.77 807.16 -291.3 805.77 -287.97C803.3 -282.01 799.76 -276.55 795.39 -271.82C787.21 -262.97 776.38 -256.91 765.02 -253.11C758.7 -251 752.16 -249.56 745.53 -248.71C731.92 -246.93 717.88 -247.51 704.42 -249.37C710.01 -248.11 715.66 -247.14 721.37 -246.47C730.28 -245.39 739.32 -245.05 748.35 -245.43C744.71 -206.28 706.52 -187.7 633.78 -189.68C633.36 -191.39 632.93 -193.13 632.54 -194.89C613.92 -278.73 645.28 -418.2 839.57 -393.76C840.84 -393.61 842.12 -393.44 843.4 -393.27C853.07 -391.97 863.11 -390.25 873.6 -388.13C874.07 -388.03 872.16 -376.74 871.96 -375.64Z" />
				</g>
				<g id="&lt;Group&gt;" style="opacity: 0.302;mix-blend-mode: soft-light">
					<g id="&lt;Group&gt;">
						<g id="&lt;Group&gt;">
							<path id="&lt;Path&gt;" class="shp3" d="M655.86 -194.89C639.14 -270.2 662.76 -390.35 808.52 -396.34C641.96 -402.76 614.96 -274.05 632.54 -194.89C632.93 -193.13 633.36 -191.39 633.78 -189.68C640.14 -189.51 647.84 -189.81 656.89 -190.57C656.54 -192 656.18 -193.43 655.86 -194.89Z" />
						</g>
					</g>
				</g>
			</g>
			<g id="&lt;Group&gt;">
				<g id="&lt;Group&gt;">
					<text id="YOUR TAGLINE HERE
" style="opacity: 0.302;mix-blend-mode: soft-light;transform: matrix(2,0,0,2,1165.354,373.805)" >
						<tspan x="-54.49" y="0" class="txt4" dx="0 2 2 2 2 2 2 2 2 2 2 2 2 2 2 2 2 2" >YOUR TAGLINE HERE
</tspan>
					</text>
				</g>
				<g id="&lt;Group&gt;">
					<text id="YOUR TAGLINE HERE
" style="opacity: 0.302;mix-blend-mode: soft-light;transform: matrix(2,0,0,2,720.494,373.805)" >
						<tspan x="-54.49" y="0" class="txt4" dx="0 2 2 2 2 2 2 2 2 2 2 2 2 2 2 2 2 2" >YOUR TAGLINE HERE
</tspan>
					</text>
				</g>
			</g>
		</g>
		<g id="&lt;Group&gt;">
			<g id="&lt;Group&gt;">
				<g id="&lt;Group&gt;">
					<path id="&lt;Path&gt;" class="shp2" d="M287.53 190.29C289.15 192.53 292 195.86 296 200.23C286.76 206.87 276.48 212.83 265.21 218.01C258.44 221.14 251.34 223.97 243.91 226.53L231.08 230.96L231.06 230.96C208.74 224.59 185.62 215.07 165.02 200.25C169.03 195.86 171.9 192.53 173.52 190.29L175.88 187.06L174.46 183.32C172.28 177.63 169.46 171.71 166.25 165.82C166.44 165.56 166.59 165.27 166.78 165C172.19 156.13 174.07 145.22 171.95 135.05C181.09 136.23 188.4 144.45 189.49 153.57C190.18 159.19 188.62 165.11 190.65 170.38C192.57 175.31 197.64 178.74 202.95 179.05C208.23 179.34 213.51 176.66 216.7 172.42C219.88 168.19 221.04 162.57 220.13 157.34C218.8 149.56 213.35 143.12 207.48 137.82C201.62 132.54 195.04 127.88 190.24 121.61C184.34 113.88 181.52 103.87 182.47 94.18C183.45 84.52 188.2 75.26 195.52 68.84C199.83 65.06 204.9 62.3 209.39 58.74C213.81 55.23 217.81 50.65 218.84 45.08C218.85 45.03 218.85 44.96 218.87 44.91C224.05 52.48 222.99 62.45 220.99 71.38C218.99 80.33 216.22 89.61 218.56 98.45C219.86 103.42 222.99 108.17 228.23 109.57C230.62 110.2 233.25 109.9 235.3 108.55C239.84 105.58 239.66 99.77 238.97 94.82C238.37 90.46 237.67 85.61 240.19 81.97C245.21 103.34 286.69 108.38 306.06 147.15C298.44 158.74 291.08 171.52 286.59 183.32L285.17 187.06L287.53 190.29Z" />
				</g>
				<g id="&lt;Group&gt;" style="mix-blend-mode: multiply">
					<path id="&lt;Path&gt;" class="shp5" d="M287.53 190.29C289.15 192.53 292 195.86 296 200.23C286.76 206.87 276.48 212.83 265.21 218.01C270.13 202.43 271.3 185.68 268.59 169.57C266.11 154.9 260.31 140.4 248.55 131.3C241.59 136.4 231.8 136.85 223.94 133.28C216.1 129.69 210.21 122.5 207.26 114.39C204.32 106.28 204.13 97.34 205.68 88.87C207.24 80.38 210.47 72.29 214.19 64.52C215.76 61.22 217.44 57.96 218.43 54.46C219.28 51.4 219.59 48.12 218.84 45.08C218.85 45.03 218.85 44.96 218.87 44.91C224.05 52.48 222.99 62.45 220.99 71.38C218.99 80.33 216.22 89.61 218.56 98.45C219.86 103.42 222.99 108.17 228.23 109.57C230.62 110.2 233.25 109.9 235.3 108.55C239.84 105.58 239.66 99.77 238.97 94.82C238.37 90.46 237.67 85.61 240.19 81.97C245.21 103.34 286.69 108.38 306.06 147.15C298.44 158.74 291.08 171.52 286.59 183.32L285.17 187.06L287.53 190.29Z" />
				</g>
				<g id="&lt;Group&gt;">
					<g id="&lt;Group&gt;">
						<path id="&lt;Path&gt;" class="shp6" d="M165.99 255.97C174.8 254.73 183.6 253.36 192.36 251.8C190.03 250.51 187.71 249.2 185.41 247.86C159.25 251.84 139.24 252.89 133.65 256.14C122.84 262.43 128.14 288.01 140.54 287.15C154.72 286.16 185.5 278.76 219.37 265.3C210.68 261.36 201.94 257.05 193.36 252.35C184.26 253.75 175.12 254.93 165.99 255.97Z" />
						<path id="&lt;Compound Path&gt;" fill-rule="evenodd" class="shp6" d="M405.24 177.17C378.3 200.73 354.19 216.68 332.91 225.01C330.77 223.46 327.56 220.73 324.28 217.8C320.7 214.59 317.06 211.2 314.72 208.98C302.68 220.06 288.67 230 273.87 238.8C269.03 238.03 264.03 237.17 258.9 236.17C265.63 233.62 272.24 230.75 278.68 227.49C290.26 221.61 301.11 214.32 311.27 206.26C312.06 206.82 312.64 207.23 312.7 207.27C312.48 206.98 310.58 204.95 307 201.17C302.46 196.39 296.14 189.61 293.47 185.95C302.78 161.51 325.34 132.03 335.54 119.43C337.65 116.81 339.35 114.74 340.66 113.21C355.93 119.31 368.95 127.7 379.72 138.37C390.48 149.03 398.99 161.96 405.24 177.17ZM318.97 182.98L343.98 152.77L348.28 147.56C350.55 144.82 350.37 140.54 347.8 138.08C346.04 136.39 343.67 136.06 341.67 136.97C340.77 137.36 339.93 138.03 339.28 138.93L312.04 176.34C310.84 178.01 311.39 180.78 313.25 182.57C315.13 184.35 317.68 184.57 318.97 182.98ZM324.78 193.6C326.64 195.4 329.32 195.72 330.77 194.3L340.7 184.62L363.6 162.26C366.15 159.79 366.18 155.72 363.62 153.26C361.06 150.8 356.99 151.01 354.6 153.64L343.96 165.41L323.84 187.66C322.47 189.16 322.92 191.83 324.78 193.6ZM379.43 168.43C376.87 165.97 372.59 165.95 369.92 168.33L335.64 198.98C335.52 199.1 335.4 199.22 335.32 199.34C335.01 199.72 334.82 200.14 334.74 200.59L334.74 200.61C334.48 201.9 335.04 203.46 336.31 204.65C338.17 206.45 340.95 206.89 342.58 205.63L378.92 176.95C381.72 174.73 382 170.89 379.43 168.43Z" />
						<path id="&lt;Path&gt;" class="shp6" d="M277.27 224.8C288.28 218.84 298.28 211.77 307.89 203.79C307.04 203.17 306.25 202.6 305.69 202.19C287.35 216.53 266.75 226.46 246.31 233.5C249.05 234.14 251.77 234.73 254.46 235.28C262.27 232.24 269.91 228.78 277.27 224.8Z" />
						<path id="&lt;Compound Path&gt;" fill-rule="evenodd" class="shp6" d="M320.51 287.15C298.82 285.64 238.36 269.16 187.32 238.88C172.47 230.07 158.41 220.09 146.33 208.98C143.77 211.4 139.66 215.24 135.76 218.69C132.86 221.27 130.07 223.63 128.14 225.01C106.85 216.68 82.74 200.73 55.8 177.17C62.05 161.96 70.56 149.03 81.33 138.37C90.04 129.73 100.73 123.08 108.72 118.8C113.26 116.36 117.14 114.5 120.39 113.21C143.7 140.34 159.42 164.59 167.56 185.95C164.9 189.61 158.6 196.39 154.05 201.17C150.47 204.96 148.56 206.99 148.33 207.27C148.42 207.23 148.98 206.82 149.77 206.26C159.95 214.32 170.79 221.61 182.37 227.49C194 233.4 206.23 238.04 218.68 241.75C243.64 249.13 269.36 253.04 295.06 255.96C269.44 252.37 243.84 247.8 219.28 239.8C207.03 235.82 195.08 230.91 183.77 224.79C172.77 218.85 162.76 211.78 153.17 203.8C154 203.17 154.79 202.6 155.35 202.19C208.72 243.92 281.33 248.31 313.05 252.78C320.01 253.76 325.02 254.75 327.39 256.13C338.2 262.43 332.91 288 320.51 287.15ZM125.39 198.98L117.3 191.74L91.12 168.33C88.47 165.95 84.18 165.97 81.6 168.43C79.04 170.89 79.31 174.73 82.13 176.95L118.48 205.63C120.08 206.89 122.88 206.45 124.75 204.65C124.76 204.64 124.78 204.62 124.8 204.6C126.61 202.83 126.9 200.32 125.39 198.98ZM137.2 187.66L106.44 153.64C106.09 153.24 105.7 152.92 105.27 152.63C102.88 151.01 99.62 151.16 97.44 153.26C94.86 155.72 94.91 159.79 97.45 162.26L110.28 174.78L130.28 194.3C131.73 195.72 134.4 195.4 136.27 193.6C138.14 191.83 138.56 189.16 137.2 187.66ZM147.79 182.57C149.66 180.78 150.21 178.01 149 176.34L121.76 138.93C119.66 136.05 115.81 135.62 113.25 138.08C110.69 140.54 110.5 144.82 112.77 147.56L142.08 182.98C143.38 184.57 145.92 184.35 147.79 182.57Z" />
					</g>
				</g>
				<g id="&lt;Group&gt;" style="mix-blend-mode: multiply">
					<path id="&lt;Path&gt;" class="shp7" d="M135.76 218.69C132.86 221.27 130.07 223.63 128.14 225.01C106.85 216.68 82.74 200.73 55.8 177.17C62.05 161.96 70.56 149.03 81.33 138.37C90.04 129.73 100.73 123.08 108.72 118.8C107.84 120.62 107.08 122.52 106.5 124.45C104.2 132.05 104.08 140.14 104.76 148.04C104.9 149.57 105.07 151.11 105.27 152.63C102.88 151.01 99.62 151.16 97.44 153.26C94.86 155.72 94.91 159.79 97.45 162.26L110.28 174.78C112.19 180.59 114.53 186.28 117.3 191.74L91.12 168.33C88.47 165.95 84.18 165.97 81.6 168.43C79.04 170.89 79.31 174.73 82.13 176.95L118.48 205.63C120.08 206.89 122.88 206.45 124.75 204.65C124.76 204.64 124.78 204.62 124.8 204.6C128.09 209.56 131.76 214.27 135.76 218.69Z" />
				</g>
				<g id="&lt;Group&gt;" style="mix-blend-mode: multiply">
					<path id="&lt;Path&gt;" class="shp7" d="M320.51 287.15C298.82 285.64 238.36 269.16 187.32 238.88C267.97 275.93 309.34 274.83 313.05 272C316.75 269.16 318.07 254.94 313.05 252.78C320.01 253.76 325.02 254.75 327.39 256.13C338.2 262.43 332.91 288 320.51 287.15Z" />
				</g>
				<path id="&lt;Path&gt;" class="shp8" d="M405.24 177.17C378.3 200.73 354.19 216.68 332.91 225.01C330.77 223.46 327.56 220.73 324.28 217.8C328.37 212.46 331.87 206.69 334.74 200.61C334.48 201.9 335.04 203.46 336.31 204.65C338.17 206.45 340.95 206.89 342.58 205.63L378.92 176.95C381.72 174.73 382 170.89 379.43 168.43C376.87 165.97 372.59 165.95 369.92 168.33L335.64 198.98C335.52 199.1 335.4 199.22 335.32 199.34C337.5 194.58 339.31 189.66 340.7 184.62L363.6 162.26C366.15 159.79 366.18 155.72 363.62 153.26C361.06 150.8 356.99 151.01 354.6 153.64L343.96 165.41C344.2 161.99 344.23 158.57 344.1 155.16C344.06 154.35 344.03 153.57 343.98 152.77L348.28 147.56C350.55 144.82 350.37 140.54 347.8 138.08C346.04 136.39 343.67 136.06 341.67 136.97C340.83 133.36 339.79 129.81 338.58 126.33C337.74 123.95 336.63 121.68 335.54 119.43C337.65 116.81 339.35 114.74 340.66 113.21C355.93 119.31 368.95 127.7 379.72 138.37C390.48 149.03 398.99 161.96 405.24 177.17Z" />
			</g>
			<g id="&lt;Group&gt;">
				<g id="&lt;Group&gt;">
					<text id="YOUR TAGLINE HERE
" style="mix-blend-mode: multiply;transform: matrix(2,0,0,2,1183.227,-102.656)" >
						<tspan x="-54.49" y="0" class="txt4" dx="0 2 2 2 2 2 2 2 2 2 2 2 2 2 2 2 2 2" >YOUR TAGLINE HERE
</tspan>
					</text>
				</g>
				<g id="&lt;Group&gt;">
					<text id="YOUR TAGLINE HERE
" style="mix-blend-mode: multiply;transform: matrix(2,0,0,2,227.953,-102.656)" >
						<tspan x="-54.49" y="0" class="txt4" dx="0 2 2 2 2 2 2 2 2 2 2 2 2 2 2 2 2 2" >YOUR TAGLINE HERE
</tspan>
					</text>
				</g>
			</g>
		</g>
		<g id="&lt;Group&gt;">
			<g id="&lt;Group&gt;">
				<g id="&lt;Group&gt;">
					<path id="&lt;Path&gt;" class="shp2" d="M1332.68 110.59C1330.7 169.15 1312.52 210.29 1278.15 234.01C1226.82 269.45 1159.05 261.92 1171.67 309.14C1171.72 309.35 1171.79 309.55 1171.84 309.76C1145.75 287.24 1139.16 259.25 1152.1 225.8C1169.38 181.15 1234.92 163.69 1246.21 112.88C1254.93 114.33 1259.68 118.98 1260.47 126.84C1262.13 167.96 1204.58 193.46 1243.25 212.29C1282.35 231.31 1311.13 140.57 1313.59 125.76C1315.19 116.18 1317.84 109.91 1332.68 110.59Z" />
				</g>
				<g id="&lt;Group&gt;" style="mix-blend-mode: multiply">
					<path id="&lt;Path&gt;" class="shp5" d="M1332.68 110.59C1330.7 169.15 1312.52 210.29 1278.15 234.01C1226.82 269.45 1159.05 261.92 1171.67 309.14C1163.53 298.11 1164.81 281.94 1172.12 270.27C1179.51 258.43 1191.95 250.59 1204.82 245.22C1217.7 239.83 1231.43 236.68 1244.33 231.33C1300.71 207.9 1326.65 162.88 1332.68 110.59Z" />
				</g>
				<g id="&lt;Group&gt;">
					<path id="&lt;Path&gt;" class="shp2" d="M1279.38 59.49C1192 55.84 1118.54 66.1 1059 90.29C1075.7 68.39 1109.59 51.79 1147.57 43.93C1144.41 42.23 1142.23 39.58 1141.78 36.4C1140.89 29.96 1147.39 23.76 1156.28 22.53C1165.18 21.3 1173.11 25.52 1174 31.94C1174.4 34.93 1173.21 37.87 1170.94 40.28C1194.32 37.78 1218.21 38.67 1239.87 43.68C1254.32 47.02 1267.76 52.22 1279.38 59.49Z" />
				</g>
				<g id="&lt;Group&gt;" style="mix-blend-mode: multiply">
					<path id="&lt;Path&gt;" class="shp5" d="M1279.38 59.49C1192 55.84 1118.54 66.1 1059 90.29C1102.45 64.12 1176.18 48.08 1239.87 43.68C1254.32 47.02 1267.76 52.22 1279.38 59.49Z" />
				</g>
				<g id="&lt;Group&gt;">
					<path id="&lt;Path&gt;" class="shp6" d="M1231.67 115.14C1225.03 135.19 1207.2 149.71 1188.36 164.98C1168.94 180.74 1148.87 197.02 1139.61 220.96C1134.76 233.46 1133.02 245.08 1133.24 255.63C1129.84 255.41 1126.43 255.14 1123.03 254.78C1092.29 251.77 1062.55 244.05 1054.2 228.08C1038.35 197.8 1056.4 155.04 1060.11 122.98C1057.36 121.9 1054.44 121.27 1051.54 121.23C1048.89 126.56 1041.29 124.6 1038.49 120.47C1035.34 115.82 1037 108.87 1042.65 107.21C1045.54 106.36 1048.68 107.23 1050.87 109.26C1051.48 109.84 1052.03 110.51 1052.46 111.24C1052.58 111.45 1053.45 113.7 1053.36 113.7C1058.13 113.86 1062.84 115.21 1066.97 117.58C1068.72 118.57 1069.52 120.64 1068.94 122.55C1069.72 122.16 1070.39 121.51 1070.72 120.6C1070.73 120.57 1070.75 120.53 1070.75 120.52C1071.45 118.57 1070.65 116.38 1068.85 115.34C1066.33 113.89 1063.58 112.88 1060.74 112.23C1060.69 107.42 1060.11 102.94 1058.76 98.96C1084.61 90.63 1117.29 85.11 1156.8 82.41C1168.26 81.63 1180.49 81.17 1193.36 81.17C1207.57 81.17 1221.01 81.75 1233.5 82.67C1234.29 90.66 1234.92 104.43 1231.67 115.14Z" />
				</g>
				<g id="&lt;Group&gt;" style="mix-blend-mode: multiply">
					<path id="&lt;Path&gt;" class="shp7" d="M1231.67 115.14C1225.03 135.19 1207.2 149.71 1188.36 164.98C1168.94 180.74 1148.87 197.02 1139.61 220.96C1134.76 233.46 1133.02 245.08 1133.24 255.63C1129.84 255.41 1126.43 255.14 1123.03 254.78C1114.59 225.92 1117.44 193.77 1131.23 167.01C1136.23 157.27 1142.57 148.31 1148.14 138.9C1153.7 129.48 1158.61 119.44 1160.33 108.65C1161.75 99.8 1160.83 90.32 1156.8 82.41C1168.26 81.63 1180.49 81.17 1193.36 81.17C1207.57 81.17 1221.01 81.75 1233.5 82.67C1234.29 90.66 1234.92 104.43 1231.67 115.14Z" />
				</g>
			</g>
			<g id="&lt;Group&gt;">
				<g id="&lt;Group&gt;">
					<text id="REVFOODS" style="mix-blend-mode: multiply;transform: matrix(2,0,0,2,229.899,352.357)" >
						<tspan x="-70.575" y="0" class="txt9" dx="0" >R</tspan><tspan  y="0" class="txt9" dx="0" >E</tspan><tspan  y="0" class="txt9" dx="0" >V</tspan><tspan  y="0" class="txt9" dx="0" >F</tspan><tspan  y="0" class="txt9" dx="0" >O</tspan><tspan  y="0" class="txt9" dx="0" >O</tspan><tspan  y="0" class="txt9" dx="0" >D</tspan><tspan  y="0" class="txt9" dx="0 0" >S
</tspan>
					</text>
				</g>
				<g id="&lt;Group&gt;">
					<text id="SIZZLE IT YOUR WAY!" style="mix-blend-mode: multiply;transform: matrix(2,0,0,2,227.953,373.805)" >
						<tspan x="-57" y="0" class="txt4" dx="0 2 2 2 2 2 2 2 2 2 2 2 2 2 2 2 2 2 2 2" >SIZZLE IT YOUR WAY!
</tspan>
					</text>
				</g>
			</g>
		</g>
	</g>
</svg>