<?xml version="1.0" encoding="UTF-8" standalone="no"?>
<!DOCTYPE svg PUBLIC "-//W3C//DTD SVG 1.1//EN"
 "http://www.w3.org/Graphics/SVG/1.1/DTD/svg11.dtd">
<!-- Generated by graphviz version 2.47.3 (20210619.1520)
 -->
<!-- Title: dependencies Pages: 1 -->
<svg width="9498pt" height="247pt"
 viewBox="0.00 0.00 9498.00 246.80" xmlns="http://www.w3.org/2000/svg" xmlns:xlink="http://www.w3.org/1999/xlink">
<g id="graph0" class="graph" transform="scale(1 1) rotate(0) translate(4 242.8)">
<title>dependencies</title>
<polygon fill="white" stroke="transparent" points="-4,4 -4,-242.8 9494,-242.8 9494,4 -4,4"/>
<text text-anchor="middle" x="4745" y="-8.2" font-family="sans-serif" font-size="14.00">dependencies</text>
<g id="clust1" class="cluster">
<title>cluster_AppModule</title>
<polygon fill="none" stroke="black" stroke-dasharray="1,5" points="8,-32.8 8,-230.8 9482,-230.8 9482,-32.8 8,-32.8"/>
</g>
<g id="clust48" class="cluster">
<title>cluster_AppModule_providers</title>
<polygon fill="none" stroke="black" points="7595,-40.8 7595,-92.8 9474,-92.8 9474,-40.8 7595,-40.8"/>
</g>
<g id="clust45" class="cluster">
<title>cluster_AppModule_imports</title>
<polygon fill="none" stroke="black" points="7443,-40.8 7443,-92.8 7587,-92.8 7587,-40.8 7443,-40.8"/>
</g>
<g id="clust47" class="cluster">
<title>cluster_AppModule_bootstrap</title>
<polygon fill="none" stroke="black" points="4786,-170.8 4786,-222.8 4910,-222.8 4910,-170.8 4786,-170.8"/>
</g>
<g id="clust2" class="cluster">
<title>cluster_AppModule_declarations</title>
<polygon fill="none" stroke="black" points="16,-40.8 16,-92.8 7435,-92.8 7435,-40.8 16,-40.8"/>
</g>
<!-- AcceptedOrdersComponent -->
<g id="node1" class="node">
<title>AcceptedOrdersComponent</title>
<polygon fill="#ffffb3" stroke="black" points="7427.28,-84.8 7254.72,-84.8 7254.72,-48.8 7427.28,-48.8 7427.28,-84.8"/>
<text text-anchor="middle" x="7341" y="-62.6" font-family="Times,serif" font-size="14.00">AcceptedOrdersComponent</text>
</g>
<!-- AppModule -->
<g id="node43" class="node">
<title>AppModule</title>
<polygon fill="#8dd3c7" stroke="black" points="4889.66,-149.8 4886.66,-153.8 4865.66,-153.8 4862.66,-149.8 4806.34,-149.8 4806.34,-113.8 4889.66,-113.8 4889.66,-149.8"/>
<text text-anchor="middle" x="4848" y="-127.6" font-family="Times,serif" font-size="14.00">AppModule</text>
</g>
<!-- AcceptedOrdersComponent&#45;&gt;AppModule -->
<g id="edge1" class="edge">
<title>AcceptedOrdersComponent&#45;&gt;AppModule</title>
<path fill="none" stroke="black" d="M7341,-84.83C7341,-104.38 7341,-132.8 7341,-132.8 7341,-132.8 4899.71,-132.8 4899.71,-132.8"/>
<polygon fill="black" stroke="black" points="4899.71,-129.3 4889.71,-132.8 4899.71,-136.3 4899.71,-129.3"/>
</g>
<!-- AddChefComponent -->
<g id="node2" class="node">
<title>AddChefComponent</title>
<polygon fill="#ffffb3" stroke="black" points="7237.15,-84.8 7104.85,-84.8 7104.85,-48.8 7237.15,-48.8 7237.15,-84.8"/>
<text text-anchor="middle" x="7171" y="-62.6" font-family="Times,serif" font-size="14.00">AddChefComponent</text>
</g>
<!-- AddChefComponent&#45;&gt;AppModule -->
<g id="edge2" class="edge">
<title>AddChefComponent&#45;&gt;AppModule</title>
<path fill="none" stroke="black" d="M7171,-84.91C7171,-104.14 7171,-131.8 7171,-131.8 7171,-131.8 4899.8,-131.8 4899.8,-131.8"/>
<polygon fill="black" stroke="black" points="4899.8,-128.3 4889.8,-131.8 4899.8,-135.3 4899.8,-128.3"/>
</g>
<!-- AddFoodCategoryComponent -->
<g id="node3" class="node">
<title>AddFoodCategoryComponent</title>
<polygon fill="#ffffb3" stroke="black" points="7086.54,-84.8 6901.46,-84.8 6901.46,-48.8 7086.54,-48.8 7086.54,-84.8"/>
<text text-anchor="middle" x="6994" y="-62.6" font-family="Times,serif" font-size="14.00">AddFoodCategoryComponent</text>
</g>
<!-- AddFoodCategoryComponent&#45;&gt;AppModule -->
<g id="edge3" class="edge">
<title>AddFoodCategoryComponent&#45;&gt;AppModule</title>
<path fill="none" stroke="black" d="M6994,-85.02C6994,-103.63 6994,-129.8 6994,-129.8 6994,-129.8 4899.9,-129.8 4899.9,-129.8"/>
<polygon fill="black" stroke="black" points="4899.9,-126.3 4889.9,-129.8 4899.9,-133.3 4899.9,-126.3"/>
</g>
<!-- AddFoodComponent -->
<g id="node4" class="node">
<title>AddFoodComponent</title>
<polygon fill="#ffffb3" stroke="black" points="6883.22,-84.8 6748.78,-84.8 6748.78,-48.8 6883.22,-48.8 6883.22,-84.8"/>
<text text-anchor="middle" x="6816" y="-62.6" font-family="Times,serif" font-size="14.00">AddFoodComponent</text>
</g>
<!-- AddFoodComponent&#45;&gt;AppModule -->
<g id="edge4" class="edge">
<title>AddFoodComponent&#45;&gt;AppModule</title>
<path fill="none" stroke="black" d="M6816,-85.07C6816,-103.36 6816,-128.8 6816,-128.8 6816,-128.8 4900.01,-128.8 4900.01,-128.8"/>
<polygon fill="black" stroke="black" points="4900.01,-125.3 4890.01,-128.8 4900.01,-132.3 4900.01,-125.3"/>
</g>
<!-- AddSupervisorComponent -->
<g id="node5" class="node">
<title>AddSupervisorComponent</title>
<polygon fill="#ffffb3" stroke="black" points="6731.09,-84.8 6564.91,-84.8 6564.91,-48.8 6731.09,-48.8 6731.09,-84.8"/>
<text text-anchor="middle" x="6648" y="-62.6" font-family="Times,serif" font-size="14.00">AddSupervisorComponent</text>
</g>
<!-- AddSupervisorComponent&#45;&gt;AppModule -->
<g id="edge5" class="edge">
<title>AddSupervisorComponent&#45;&gt;AppModule</title>
<path fill="none" stroke="black" d="M6648,-85.1C6648,-103.07 6648,-127.8 6648,-127.8 6648,-127.8 4899.84,-127.8 4899.84,-127.8"/>
<polygon fill="black" stroke="black" points="4899.84,-124.3 4889.84,-127.8 4899.84,-131.3 4899.84,-124.3"/>
</g>
<!-- AdminDashboardComponent -->
<g id="node6" class="node">
<title>AdminDashboardComponent</title>
<polygon fill="#ffffb3" stroke="black" points="6547.36,-84.8 6366.64,-84.8 6366.64,-48.8 6547.36,-48.8 6547.36,-84.8"/>
<text text-anchor="middle" x="6457" y="-62.6" font-family="Times,serif" font-size="14.00">AdminDashboardComponent</text>
</g>
<!-- AdminDashboardComponent&#45;&gt;AppModule -->
<g id="edge6" class="edge">
<title>AdminDashboardComponent&#45;&gt;AppModule</title>
<path fill="none" stroke="black" d="M6457,-84.82C6457,-102.17 6457,-125.8 6457,-125.8 6457,-125.8 4899.8,-125.8 4899.8,-125.8"/>
<polygon fill="black" stroke="black" points="4899.8,-122.3 4889.8,-125.8 4899.8,-129.3 4899.8,-122.3"/>
</g>
<!-- AdminSidebarComponent -->
<g id="node7" class="node">
<title>AdminSidebarComponent</title>
<polygon fill="#ffffb3" stroke="black" points="6348.48,-84.8 6185.52,-84.8 6185.52,-48.8 6348.48,-48.8 6348.48,-84.8"/>
<text text-anchor="middle" x="6267" y="-62.6" font-family="Times,serif" font-size="14.00">AdminSidebarComponent</text>
</g>
<!-- AdminSidebarComponent&#45;&gt;AppModule -->
<g id="edge7" class="edge">
<title>AdminSidebarComponent&#45;&gt;AppModule</title>
<path fill="none" stroke="black" d="M6267,-84.83C6267,-101.86 6267,-124.8 6267,-124.8 6267,-124.8 4899.7,-124.8 4899.7,-124.8"/>
<polygon fill="black" stroke="black" points="4899.7,-121.3 4889.7,-124.8 4899.7,-128.3 4899.7,-121.3"/>
</g>
<!-- AppComponent -->
<g id="node8" class="node">
<title>AppComponent</title>
<polygon fill="#ffffb3" stroke="black" points="6167.94,-84.8 6062.06,-84.8 6062.06,-48.8 6167.94,-48.8 6167.94,-84.8"/>
<text text-anchor="middle" x="6115" y="-62.6" font-family="Times,serif" font-size="14.00">AppComponent</text>
</g>
<!-- AppComponent&#45;&gt;AppModule -->
<g id="edge8" class="edge">
<title>AppComponent&#45;&gt;AppModule</title>
<path fill="none" stroke="black" d="M6115,-84.84C6115,-101.53 6115,-123.8 6115,-123.8 6115,-123.8 4899.79,-123.8 4899.79,-123.8"/>
<polygon fill="black" stroke="black" points="4899.79,-120.3 4889.79,-123.8 4899.79,-127.3 4899.79,-120.3"/>
</g>
<!-- BillComponent -->
<g id="node9" class="node">
<title>BillComponent</title>
<polygon fill="#ffffb3" stroke="black" points="6044.34,-84.8 5941.66,-84.8 5941.66,-48.8 6044.34,-48.8 6044.34,-84.8"/>
<text text-anchor="middle" x="5993" y="-62.6" font-family="Times,serif" font-size="14.00">BillComponent</text>
</g>
<!-- BillComponent&#45;&gt;AppModule -->
<g id="edge9" class="edge">
<title>BillComponent&#45;&gt;AppModule</title>
<path fill="none" stroke="black" d="M5993,-84.81C5993,-100.85 5993,-121.8 5993,-121.8 5993,-121.8 4899.77,-121.8 4899.77,-121.8"/>
<polygon fill="black" stroke="black" points="4899.77,-118.3 4889.77,-121.8 4899.77,-125.3 4899.77,-118.3"/>
</g>
<!-- ChefDashboardComponent -->
<g id="node10" class="node">
<title>ChefDashboardComponent</title>
<polygon fill="#ffffb3" stroke="black" points="5923.69,-84.8 5754.31,-84.8 5754.31,-48.8 5923.69,-48.8 5923.69,-84.8"/>
<text text-anchor="middle" x="5839" y="-62.6" font-family="Times,serif" font-size="14.00">ChefDashboardComponent</text>
</g>
<!-- ChefDashboardComponent&#45;&gt;AppModule -->
<g id="edge10" class="edge">
<title>ChefDashboardComponent&#45;&gt;AppModule</title>
<path fill="none" stroke="black" d="M5839,-85.08C5839,-100.75 5839,-120.8 5839,-120.8 5839,-120.8 4899.95,-120.8 4899.95,-120.8"/>
<polygon fill="black" stroke="black" points="4899.95,-117.3 4889.95,-120.8 4899.95,-124.3 4899.95,-117.3"/>
</g>
<!-- ChefSidebarComponent -->
<g id="node11" class="node">
<title>ChefSidebarComponent</title>
<polygon fill="#ffffb3" stroke="black" points="5736.81,-84.8 5585.19,-84.8 5585.19,-48.8 5736.81,-48.8 5736.81,-84.8"/>
<text text-anchor="middle" x="5661" y="-62.6" font-family="Times,serif" font-size="14.00">ChefSidebarComponent</text>
</g>
<!-- ChefSidebarComponent&#45;&gt;AppModule -->
<g id="edge11" class="edge">
<title>ChefSidebarComponent&#45;&gt;AppModule</title>
<path fill="none" stroke="black" d="M5661,-85.04C5661,-100.37 5661,-119.8 5661,-119.8 5661,-119.8 4899.72,-119.8 4899.72,-119.8"/>
<polygon fill="black" stroke="black" points="4899.72,-116.3 4889.72,-119.8 4899.72,-123.3 4899.72,-116.3"/>
</g>
<!-- CustomerHelpsComponent -->
<g id="node12" class="node">
<title>CustomerHelpsComponent</title>
<polygon fill="#ffffb3" stroke="black" points="5567.43,-84.8 5398.57,-84.8 5398.57,-48.8 5567.43,-48.8 5567.43,-84.8"/>
<text text-anchor="middle" x="5483" y="-62.6" font-family="Times,serif" font-size="14.00">CustomerHelpsComponent</text>
</g>
<!-- CustomerHelpsComponent&#45;&gt;AppModule -->
<g id="edge12" class="edge">
<title>CustomerHelpsComponent&#45;&gt;AppModule</title>
<path fill="none" stroke="black" d="M5483,-84.92C5483,-99.58 5483,-117.8 5483,-117.8 5483,-117.8 4899.66,-117.8 4899.66,-117.8"/>
<polygon fill="black" stroke="black" points="4899.66,-114.3 4889.66,-117.8 4899.66,-121.3 4899.66,-114.3"/>
</g>
<!-- CustomerRegisterComponent -->
<g id="node13" class="node">
<title>CustomerRegisterComponent</title>
<polygon fill="#ffffb3" stroke="black" points="5381.42,-84.8 5198.58,-84.8 5198.58,-48.8 5381.42,-48.8 5381.42,-84.8"/>
<text text-anchor="middle" x="5290" y="-62.6" font-family="Times,serif" font-size="14.00">CustomerRegisterComponent</text>
</g>
<!-- CustomerRegisterComponent&#45;&gt;AppModule -->
<g id="edge13" class="edge">
<title>CustomerRegisterComponent&#45;&gt;AppModule</title>
<path fill="none" stroke="black" d="M5290,-84.85C5290,-99.17 5290,-116.8 5290,-116.8 5290,-116.8 4899.98,-116.8 4899.98,-116.8"/>
<polygon fill="black" stroke="black" points="4899.98,-113.3 4889.98,-116.8 4899.98,-120.3 4899.98,-113.3"/>
</g>
<!-- CustomerSidebarComponent -->
<g id="node14" class="node">
<title>CustomerSidebarComponent</title>
<polygon fill="#ffffb3" stroke="black" points="5181.03,-84.8 5002.97,-84.8 5002.97,-48.8 5181.03,-48.8 5181.03,-84.8"/>
<text text-anchor="middle" x="5092" y="-62.6" font-family="Times,serif" font-size="14.00">CustomerSidebarComponent</text>
</g>
<!-- CustomerSidebarComponent&#45;&gt;AppModule -->
<g id="edge14" class="edge">
<title>CustomerSidebarComponent&#45;&gt;AppModule</title>
<path fill="none" stroke="black" d="M5092,-85.05C5092,-98.98 5092,-115.8 5092,-115.8 5092,-115.8 4899.67,-115.8 4899.67,-115.8"/>
<polygon fill="black" stroke="black" points="4899.67,-112.3 4889.67,-115.8 4899.67,-119.3 4899.67,-112.3"/>
</g>
<!-- FeedbackComponent -->
<g id="node15" class="node">
<title>FeedbackComponent</title>
<polygon fill="#ffffb3" stroke="black" points="4984.47,-84.8 4849.53,-84.8 4849.53,-48.8 4984.47,-48.8 4984.47,-84.8"/>
<text text-anchor="middle" x="4917" y="-62.6" font-family="Times,serif" font-size="14.00">FeedbackComponent</text>
</g>
<!-- FeedbackComponent&#45;&gt;AppModule -->
<g id="edge15" class="edge">
<title>FeedbackComponent&#45;&gt;AppModule</title>
<path fill="none" stroke="black" d="M4869.67,-84.91C4869.67,-84.91 4869.67,-103.79 4869.67,-103.79"/>
<polygon fill="black" stroke="black" points="4866.17,-103.79 4869.67,-113.79 4873.17,-103.79 4866.17,-103.79"/>
</g>
<!-- FoodStatusPipe -->
<g id="node16" class="node">
<title>FoodStatusPipe</title>
<polygon fill="#ffffb3" stroke="black" points="4831.89,-84.8 4728.11,-84.8 4728.11,-48.8 4831.89,-48.8 4831.89,-84.8"/>
<text text-anchor="middle" x="4780" y="-62.6" font-family="Times,serif" font-size="14.00">FoodStatusPipe</text>
</g>
<!-- FoodStatusPipe&#45;&gt;AppModule -->
<g id="edge16" class="edge">
<title>FoodStatusPipe&#45;&gt;AppModule</title>
<path fill="none" stroke="black" d="M4819.06,-84.91C4819.06,-84.91 4819.06,-103.79 4819.06,-103.79"/>
<polygon fill="black" stroke="black" points="4815.56,-103.79 4819.06,-113.79 4822.56,-103.79 4815.56,-103.79"/>
</g>
<!-- HeaderComponent -->
<g id="node17" class="node">
<title>HeaderComponent</title>
<polygon fill="#ffffb3" stroke="black" points="4709.74,-84.8 4588.26,-84.8 4588.26,-48.8 4709.74,-48.8 4709.74,-84.8"/>
<text text-anchor="middle" x="4649" y="-62.6" font-family="Times,serif" font-size="14.00">HeaderComponent</text>
</g>
<!-- HeaderComponent&#45;&gt;AppModule -->
<g id="edge17" class="edge">
<title>HeaderComponent&#45;&gt;AppModule</title>
<path fill="none" stroke="black" d="M4649,-85.05C4649,-98.98 4649,-115.8 4649,-115.8 4649,-115.8 4796.28,-115.8 4796.28,-115.8"/>
<polygon fill="black" stroke="black" points="4796.28,-119.3 4806.28,-115.8 4796.28,-112.3 4796.28,-119.3"/>
</g>
<!-- HelpComponent -->
<g id="node18" class="node">
<title>HelpComponent</title>
<polygon fill="#ffffb3" stroke="black" points="4570.05,-84.8 4461.95,-84.8 4461.95,-48.8 4570.05,-48.8 4570.05,-84.8"/>
<text text-anchor="middle" x="4516" y="-62.6" font-family="Times,serif" font-size="14.00">HelpComponent</text>
</g>
<!-- HelpComponent&#45;&gt;AppModule -->
<g id="edge18" class="edge">
<title>HelpComponent&#45;&gt;AppModule</title>
<path fill="none" stroke="black" d="M4516,-84.85C4516,-99.17 4516,-116.8 4516,-116.8 4516,-116.8 4796.29,-116.8 4796.29,-116.8"/>
<polygon fill="black" stroke="black" points="4796.29,-120.3 4806.29,-116.8 4796.29,-113.3 4796.29,-120.3"/>
</g>
<!-- HomeComponent -->
<g id="node19" class="node">
<title>HomeComponent</title>
<polygon fill="#ffffb3" stroke="black" points="4443.55,-84.8 4328.45,-84.8 4328.45,-48.8 4443.55,-48.8 4443.55,-84.8"/>
<text text-anchor="middle" x="4386" y="-62.6" font-family="Times,serif" font-size="14.00">HomeComponent</text>
</g>
<!-- HomeComponent&#45;&gt;AppModule -->
<g id="edge19" class="edge">
<title>HomeComponent&#45;&gt;AppModule</title>
<path fill="none" stroke="black" d="M4386,-84.92C4386,-99.58 4386,-117.8 4386,-117.8 4386,-117.8 4796.19,-117.8 4796.19,-117.8"/>
<polygon fill="black" stroke="black" points="4796.19,-121.3 4806.19,-117.8 4796.19,-114.3 4796.19,-121.3"/>
</g>
<!-- LoginComponent -->
<g id="node20" class="node">
<title>LoginComponent</title>
<polygon fill="#ffffb3" stroke="black" points="4310.28,-84.8 4195.72,-84.8 4195.72,-48.8 4310.28,-48.8 4310.28,-84.8"/>
<text text-anchor="middle" x="4253" y="-62.6" font-family="Times,serif" font-size="14.00">LoginComponent</text>
</g>
<!-- LoginComponent&#45;&gt;AppModule -->
<g id="edge20" class="edge">
<title>LoginComponent&#45;&gt;AppModule</title>
<path fill="none" stroke="black" d="M4253,-85.04C4253,-100.37 4253,-119.8 4253,-119.8 4253,-119.8 4796.16,-119.8 4796.16,-119.8"/>
<polygon fill="black" stroke="black" points="4796.16,-123.3 4806.16,-119.8 4796.16,-116.3 4796.16,-123.3"/>
</g>
<!-- ManageChefComponent -->
<g id="node21" class="node">
<title>ManageChefComponent</title>
<polygon fill="#ffffb3" stroke="black" points="4177.63,-84.8 4024.37,-84.8 4024.37,-48.8 4177.63,-48.8 4177.63,-84.8"/>
<text text-anchor="middle" x="4101" y="-62.6" font-family="Times,serif" font-size="14.00">ManageChefComponent</text>
</g>
<!-- ManageChefComponent&#45;&gt;AppModule -->
<g id="edge21" class="edge">
<title>ManageChefComponent&#45;&gt;AppModule</title>
<path fill="none" stroke="black" d="M4101,-85.08C4101,-100.75 4101,-120.8 4101,-120.8 4101,-120.8 4796.24,-120.8 4796.24,-120.8"/>
<polygon fill="black" stroke="black" points="4796.24,-124.3 4806.24,-120.8 4796.24,-117.3 4796.24,-124.3"/>
</g>
<!-- ManageFoodCategoryComponent -->
<g id="node22" class="node">
<title>ManageFoodCategoryComponent</title>
<polygon fill="#ffffb3" stroke="black" points="4006.02,-84.8 3799.98,-84.8 3799.98,-48.8 4006.02,-48.8 4006.02,-84.8"/>
<text text-anchor="middle" x="3903" y="-62.6" font-family="Times,serif" font-size="14.00">ManageFoodCategoryComponent</text>
</g>
<!-- ManageFoodCategoryComponent&#45;&gt;AppModule -->
<g id="edge22" class="edge">
<title>ManageFoodCategoryComponent&#45;&gt;AppModule</title>
<path fill="none" stroke="black" d="M3903,-84.81C3903,-100.85 3903,-121.8 3903,-121.8 3903,-121.8 4796.18,-121.8 4796.18,-121.8"/>
<polygon fill="black" stroke="black" points="4796.18,-125.3 4806.18,-121.8 4796.18,-118.3 4796.18,-125.3"/>
</g>
<!-- ManageFoodComponent -->
<g id="node23" class="node">
<title>ManageFoodComponent</title>
<polygon fill="#ffffb3" stroke="black" points="3781.7,-84.8 3626.3,-84.8 3626.3,-48.8 3781.7,-48.8 3781.7,-84.8"/>
<text text-anchor="middle" x="3704" y="-62.6" font-family="Times,serif" font-size="14.00">ManageFoodComponent</text>
</g>
<!-- ManageFoodComponent&#45;&gt;AppModule -->
<g id="edge23" class="edge">
<title>ManageFoodComponent&#45;&gt;AppModule</title>
<path fill="none" stroke="black" d="M3704,-84.84C3704,-101.53 3704,-123.8 3704,-123.8 3704,-123.8 4796.27,-123.8 4796.27,-123.8"/>
<polygon fill="black" stroke="black" points="4796.27,-127.3 4806.27,-123.8 4796.27,-120.3 4796.27,-127.3"/>
</g>
<!-- ManageSupervisorComponent -->
<g id="node24" class="node">
<title>ManageSupervisorComponent</title>
<polygon fill="#ffffb3" stroke="black" points="3608.57,-84.8 3421.43,-84.8 3421.43,-48.8 3608.57,-48.8 3608.57,-84.8"/>
<text text-anchor="middle" x="3515" y="-62.6" font-family="Times,serif" font-size="14.00">ManageSupervisorComponent</text>
</g>
<!-- ManageSupervisorComponent&#45;&gt;AppModule -->
<g id="edge24" class="edge">
<title>ManageSupervisorComponent&#45;&gt;AppModule</title>
<path fill="none" stroke="black" d="M3515,-84.83C3515,-101.86 3515,-124.8 3515,-124.8 3515,-124.8 4796.28,-124.8 4796.28,-124.8"/>
<polygon fill="black" stroke="black" points="4796.28,-128.3 4806.28,-124.8 4796.28,-121.3 4796.28,-128.3"/>
</g>
<!-- OrderCancellationRequestComponent -->
<g id="node25" class="node">
<title>OrderCancellationRequestComponent</title>
<polygon fill="#ffffb3" stroke="black" points="3403.83,-84.8 3174.17,-84.8 3174.17,-48.8 3403.83,-48.8 3403.83,-84.8"/>
<text text-anchor="middle" x="3289" y="-62.6" font-family="Times,serif" font-size="14.00">OrderCancellationRequestComponent</text>
</g>
<!-- OrderCancellationRequestComponent&#45;&gt;AppModule -->
<g id="edge25" class="edge">
<title>OrderCancellationRequestComponent&#45;&gt;AppModule</title>
<path fill="none" stroke="black" d="M3289,-84.82C3289,-102.17 3289,-125.8 3289,-125.8 3289,-125.8 4796.3,-125.8 4796.3,-125.8"/>
<polygon fill="black" stroke="black" points="4796.3,-129.3 4806.3,-125.8 4796.3,-122.3 4796.3,-129.3"/>
</g>
<!-- PaymentComponent -->
<g id="node26" class="node">
<title>PaymentComponent</title>
<polygon fill="#ffffb3" stroke="black" points="3156.33,-84.8 3025.67,-84.8 3025.67,-48.8 3156.33,-48.8 3156.33,-84.8"/>
<text text-anchor="middle" x="3091" y="-62.6" font-family="Times,serif" font-size="14.00">PaymentComponent</text>
</g>
<!-- PaymentComponent&#45;&gt;AppModule -->
<g id="edge26" class="edge">
<title>PaymentComponent&#45;&gt;AppModule</title>
<path fill="none" stroke="black" d="M3091,-85.1C3091,-103.07 3091,-127.8 3091,-127.8 3091,-127.8 4796.3,-127.8 4796.3,-127.8"/>
<polygon fill="black" stroke="black" points="4796.3,-131.3 4806.3,-127.8 4796.3,-124.3 4796.3,-131.3"/>
</g>
<!-- PendingBillsComponent -->
<g id="node27" class="node">
<title>PendingBillsComponent</title>
<polygon fill="#ffffb3" stroke="black" points="3007.67,-84.8 2854.33,-84.8 2854.33,-48.8 3007.67,-48.8 3007.67,-84.8"/>
<text text-anchor="middle" x="2931" y="-62.6" font-family="Times,serif" font-size="14.00">PendingBillsComponent</text>
</g>
<!-- PendingBillsComponent&#45;&gt;AppModule -->
<g id="edge27" class="edge">
<title>PendingBillsComponent&#45;&gt;AppModule</title>
<path fill="none" stroke="black" d="M2931,-85.07C2931,-103.36 2931,-128.8 2931,-128.8 2931,-128.8 4796.18,-128.8 4796.18,-128.8"/>
<polygon fill="black" stroke="black" points="4796.18,-132.3 4806.18,-128.8 4796.18,-125.3 4796.18,-132.3"/>
</g>
<!-- RevfoodsComponent -->
<g id="node28" class="node">
<title>RevfoodsComponent</title>
<polygon fill="#ffffb3" stroke="black" points="2836.49,-84.8 2701.51,-84.8 2701.51,-48.8 2836.49,-48.8 2836.49,-84.8"/>
<text text-anchor="middle" x="2769" y="-62.6" font-family="Times,serif" font-size="14.00">RevfoodsComponent</text>
</g>
<!-- RevfoodsComponent&#45;&gt;AppModule -->
<g id="edge28" class="edge">
<title>RevfoodsComponent&#45;&gt;AppModule</title>
<path fill="none" stroke="black" d="M2769,-85.02C2769,-103.63 2769,-129.8 2769,-129.8 2769,-129.8 4796,-129.8 4796,-129.8"/>
<polygon fill="black" stroke="black" points="4796,-133.3 4806,-129.8 4796,-126.3 4796,-133.3"/>
</g>
<!-- ServedOrdersComponent -->
<g id="node29" class="node">
<title>ServedOrdersComponent</title>
<polygon fill="#ffffb3" stroke="black" points="2683.29,-84.8 2524.71,-84.8 2524.71,-48.8 2683.29,-48.8 2683.29,-84.8"/>
<text text-anchor="middle" x="2604" y="-62.6" font-family="Times,serif" font-size="14.00">ServedOrdersComponent</text>
</g>
<!-- ServedOrdersComponent&#45;&gt;AppModule -->
<g id="edge29" class="edge">
<title>ServedOrdersComponent&#45;&gt;AppModule</title>
<path fill="none" stroke="black" d="M2604,-84.91C2604,-104.14 2604,-131.8 2604,-131.8 2604,-131.8 4796.16,-131.8 4796.16,-131.8"/>
<polygon fill="black" stroke="black" points="4796.16,-135.3 4806.16,-131.8 4796.16,-128.3 4796.16,-135.3"/>
</g>
<!-- SubHomeComponent -->
<g id="node30" class="node">
<title>SubHomeComponent</title>
<polygon fill="#ffffb3" stroke="black" points="2506.83,-84.8 2369.17,-84.8 2369.17,-48.8 2506.83,-48.8 2506.83,-84.8"/>
<text text-anchor="middle" x="2438" y="-62.6" font-family="Times,serif" font-size="14.00">SubHomeComponent</text>
</g>
<!-- SubHomeComponent&#45;&gt;AppModule -->
<g id="edge30" class="edge">
<title>SubHomeComponent&#45;&gt;AppModule</title>
<path fill="none" stroke="black" d="M2438,-84.83C2438,-104.38 2438,-132.8 2438,-132.8 2438,-132.8 4796.17,-132.8 4796.17,-132.8"/>
<polygon fill="black" stroke="black" points="4796.17,-136.3 4806.17,-132.8 4796.17,-129.3 4796.17,-136.3"/>
</g>
<!-- SupervisorDashboardComponent -->
<g id="node31" class="node">
<title>SupervisorDashboardComponent</title>
<polygon fill="#ffffb3" stroke="black" points="2351.13,-84.8 2148.87,-84.8 2148.87,-48.8 2351.13,-48.8 2351.13,-84.8"/>
<text text-anchor="middle" x="2250" y="-62.6" font-family="Times,serif" font-size="14.00">SupervisorDashboardComponent</text>
</g>
<!-- SupervisorDashboardComponent&#45;&gt;AppModule -->
<g id="edge31" class="edge">
<title>SupervisorDashboardComponent&#45;&gt;AppModule</title>
<path fill="none" stroke="black" d="M2250,-85.11C2250,-104.95 2250,-133.8 2250,-133.8 2250,-133.8 4796.14,-133.8 4796.14,-133.8"/>
<polygon fill="black" stroke="black" points="4796.14,-137.3 4806.14,-133.8 4796.14,-130.3 4796.14,-137.3"/>
</g>
<!-- SupervisorSidebarComponent -->
<g id="node32" class="node">
<title>SupervisorSidebarComponent</title>
<polygon fill="#ffffb3" stroke="black" points="2130.25,-84.8 1945.75,-84.8 1945.75,-48.8 2130.25,-48.8 2130.25,-84.8"/>
<text text-anchor="middle" x="2038" y="-62.6" font-family="Times,serif" font-size="14.00">SupervisorSidebarComponent</text>
</g>
<!-- SupervisorSidebarComponent&#45;&gt;AppModule -->
<g id="edge32" class="edge">
<title>SupervisorSidebarComponent&#45;&gt;AppModule</title>
<path fill="none" stroke="black" d="M2038,-84.93C2038,-105.37 2038,-135.8 2038,-135.8 2038,-135.8 4796.1,-135.8 4796.1,-135.8"/>
<polygon fill="black" stroke="black" points="4796.1,-139.3 4806.1,-135.8 4796.1,-132.3 4796.1,-139.3"/>
</g>
<!-- TotalFoodOrderPricePipe -->
<g id="node33" class="node">
<title>TotalFoodOrderPricePipe</title>
<polygon fill="#ffffb3" stroke="black" points="1927.12,-84.8 1766.88,-84.8 1766.88,-48.8 1927.12,-48.8 1927.12,-84.8"/>
<text text-anchor="middle" x="1847" y="-62.6" font-family="Times,serif" font-size="14.00">TotalFoodOrderPricePipe</text>
</g>
<!-- TotalFoodOrderPricePipe&#45;&gt;AppModule -->
<g id="edge33" class="edge">
<title>TotalFoodOrderPricePipe&#45;&gt;AppModule</title>
<path fill="none" stroke="black" d="M1847,-84.83C1847,-105.57 1847,-136.8 1847,-136.8 1847,-136.8 4796.15,-136.8 4796.15,-136.8"/>
<polygon fill="black" stroke="black" points="4796.15,-140.3 4806.15,-136.8 4796.15,-133.3 4796.15,-140.3"/>
</g>
<!-- UpdateChefComponent -->
<g id="node34" class="node">
<title>UpdateChefComponent</title>
<polygon fill="#ffffb3" stroke="black" points="1748.47,-84.8 1599.53,-84.8 1599.53,-48.8 1748.47,-48.8 1748.47,-84.8"/>
<text text-anchor="middle" x="1674" y="-62.6" font-family="Times,serif" font-size="14.00">UpdateChefComponent</text>
</g>
<!-- UpdateChefComponent&#45;&gt;AppModule -->
<g id="edge34" class="edge">
<title>UpdateChefComponent&#45;&gt;AppModule</title>
<path fill="none" stroke="black" d="M1674,-85.08C1674,-106.12 1674,-137.8 1674,-137.8 1674,-137.8 4796.12,-137.8 4796.12,-137.8"/>
<polygon fill="black" stroke="black" points="4796.12,-141.3 4806.12,-137.8 4796.12,-134.3 4796.12,-141.3"/>
</g>
<!-- UpdateFoodCategoryComponent -->
<g id="node35" class="node">
<title>UpdateFoodCategoryComponent</title>
<polygon fill="#ffffb3" stroke="black" points="1581.86,-84.8 1380.14,-84.8 1380.14,-48.8 1581.86,-48.8 1581.86,-84.8"/>
<text text-anchor="middle" x="1481" y="-62.6" font-family="Times,serif" font-size="14.00">UpdateFoodCategoryComponent</text>
</g>
<!-- UpdateFoodCategoryComponent&#45;&gt;AppModule -->
<g id="edge35" class="edge">
<title>UpdateFoodCategoryComponent&#45;&gt;AppModule</title>
<path fill="none" stroke="black" d="M1481,-84.84C1481,-106.46 1481,-139.8 1481,-139.8 1481,-139.8 4796.34,-139.8 4796.34,-139.8"/>
<polygon fill="black" stroke="black" points="4796.34,-143.3 4806.34,-139.8 4796.34,-136.3 4796.34,-143.3"/>
</g>
<!-- UpdateFoodComponent -->
<g id="node36" class="node">
<title>UpdateFoodComponent</title>
<polygon fill="#ffffb3" stroke="black" points="1362.04,-84.8 1211.96,-84.8 1211.96,-48.8 1362.04,-48.8 1362.04,-84.8"/>
<text text-anchor="middle" x="1287" y="-62.6" font-family="Times,serif" font-size="14.00">UpdateFoodComponent</text>
</g>
<!-- UpdateFoodComponent&#45;&gt;AppModule -->
<g id="edge36" class="edge">
<title>UpdateFoodComponent&#45;&gt;AppModule</title>
<path fill="none" stroke="black" d="M1287,-85.09C1287,-107.01 1287,-140.8 1287,-140.8 1287,-140.8 4796.15,-140.8 4796.15,-140.8"/>
<polygon fill="black" stroke="black" points="4796.15,-144.3 4806.15,-140.8 4796.15,-137.3 4796.15,-144.3"/>
</g>
<!-- UpdateSupervisorComponent -->
<g id="node37" class="node">
<title>UpdateSupervisorComponent</title>
<polygon fill="#ffffb3" stroke="black" points="1194.41,-84.8 1011.59,-84.8 1011.59,-48.8 1194.41,-48.8 1194.41,-84.8"/>
<text text-anchor="middle" x="1103" y="-62.6" font-family="Times,serif" font-size="14.00">UpdateSupervisorComponent</text>
</g>
<!-- UpdateSupervisorComponent&#45;&gt;AppModule -->
<g id="edge37" class="edge">
<title>UpdateSupervisorComponent&#45;&gt;AppModule</title>
<path fill="none" stroke="black" d="M1103,-84.96C1103,-107.15 1103,-141.8 1103,-141.8 1103,-141.8 4796.26,-141.8 4796.26,-141.8"/>
<polygon fill="black" stroke="black" points="4796.26,-145.3 4806.26,-141.8 4796.26,-138.3 4796.26,-145.3"/>
</g>
<!-- ViewCartComponent -->
<g id="node38" class="node">
<title>ViewCartComponent</title>
<polygon fill="#ffffb3" stroke="black" points="993.75,-84.8 858.25,-84.8 858.25,-48.8 993.75,-48.8 993.75,-84.8"/>
<text text-anchor="middle" x="926" y="-62.6" font-family="Times,serif" font-size="14.00">ViewCartComponent</text>
</g>
<!-- ViewCartComponent&#45;&gt;AppModule -->
<g id="edge38" class="edge">
<title>ViewCartComponent&#45;&gt;AppModule</title>
<path fill="none" stroke="black" d="M926,-85.05C926,-107.82 926,-143.8 926,-143.8 926,-143.8 4796.28,-143.8 4796.28,-143.8"/>
<polygon fill="black" stroke="black" points="4796.28,-147.3 4806.28,-143.8 4796.28,-140.3 4796.28,-147.3"/>
</g>
<!-- ViewCustomerOrdersComponent -->
<g id="node39" class="node">
<title>ViewCustomerOrdersComponent</title>
<polygon fill="#ffffb3" stroke="black" points="840.18,-84.8 635.82,-84.8 635.82,-48.8 840.18,-48.8 840.18,-84.8"/>
<text text-anchor="middle" x="738" y="-62.6" font-family="Times,serif" font-size="14.00">ViewCustomerOrdersComponent</text>
</g>
<!-- ViewCustomerOrdersComponent&#45;&gt;AppModule -->
<g id="edge39" class="edge">
<title>ViewCustomerOrdersComponent&#45;&gt;AppModule</title>
<path fill="none" stroke="black" d="M738,-84.89C738,-107.93 738,-144.8 738,-144.8 738,-144.8 4796.32,-144.8 4796.32,-144.8"/>
<polygon fill="black" stroke="black" points="4796.32,-148.3 4806.32,-144.8 4796.32,-141.3 4796.32,-148.3"/>
</g>
<!-- ViewFoodCategoryComponent -->
<g id="node40" class="node">
<title>ViewFoodCategoryComponent</title>
<polygon fill="#ffffb3" stroke="black" points="617.75,-84.8 426.25,-84.8 426.25,-48.8 617.75,-48.8 617.75,-84.8"/>
<text text-anchor="middle" x="522" y="-62.6" font-family="Times,serif" font-size="14.00">ViewFoodCategoryComponent</text>
</g>
<!-- ViewFoodCategoryComponent&#45;&gt;AppModule -->
<g id="edge40" class="edge">
<title>ViewFoodCategoryComponent&#45;&gt;AppModule</title>
<path fill="none" stroke="black" d="M522,-85.12C522,-108.46 522,-145.8 522,-145.8 522,-145.8 4796.23,-145.8 4796.23,-145.8"/>
<polygon fill="black" stroke="black" points="4796.23,-149.3 4806.23,-145.8 4796.23,-142.3 4796.23,-149.3"/>
</g>
<!-- ViewOrdersComponent -->
<g id="node41" class="node">
<title>ViewOrdersComponent</title>
<polygon fill="#ffffb3" stroke="black" points="407.74,-84.8 258.26,-84.8 258.26,-48.8 407.74,-48.8 407.74,-84.8"/>
<text text-anchor="middle" x="333" y="-62.6" font-family="Times,serif" font-size="14.00">ViewOrdersComponent</text>
</g>
<!-- ViewOrdersComponent&#45;&gt;AppModule -->
<g id="edge41" class="edge">
<title>ViewOrdersComponent&#45;&gt;AppModule</title>
<path fill="none" stroke="black" d="M333,-85.18C333,-109.08 333,-147.8 333,-147.8 333,-147.8 4796.19,-147.8 4796.19,-147.8"/>
<polygon fill="black" stroke="black" points="4796.19,-151.3 4806.19,-147.8 4796.19,-144.3 4796.19,-151.3"/>
</g>
<!-- ViewUnoccupiedTablesComponent -->
<g id="node42" class="node">
<title>ViewUnoccupiedTablesComponent</title>
<polygon fill="#ffffb3" stroke="black" points="240.11,-84.8 23.89,-84.8 23.89,-48.8 240.11,-48.8 240.11,-84.8"/>
<text text-anchor="middle" x="132" y="-62.6" font-family="Times,serif" font-size="14.00">ViewUnoccupiedTablesComponent</text>
</g>
<!-- ViewUnoccupiedTablesComponent&#45;&gt;AppModule -->
<g id="edge42" class="edge">
<title>ViewUnoccupiedTablesComponent&#45;&gt;AppModule</title>
<path fill="none" stroke="black" d="M132,-85C132,-109.16 132,-148.8 132,-148.8 132,-148.8 4796.15,-148.8 4796.15,-148.8"/>
<polygon fill="black" stroke="black" points="4796.15,-152.3 4806.15,-148.8 4796.15,-145.3 4796.15,-152.3"/>
</g>
<!-- AppComponent  -->
<g id="node45" class="node">
<title>AppComponent </title>
<polygon fill="#80b1d3" stroke="black" points="4902.44,-214.8 4793.56,-214.8 4793.56,-178.8 4902.44,-178.8 4902.44,-214.8"/>
<text text-anchor="middle" x="4848" y="-192.6" font-family="Times,serif" font-size="14.00">AppComponent </text>
</g>
<!-- AppModule&#45;&gt;AppComponent  -->
<g id="edge44" class="edge">
<title>AppModule&#45;&gt;AppComponent </title>
<path fill="none" stroke="black" stroke-dasharray="1,5" d="M4848,-149.91C4848,-149.91 4848,-168.79 4848,-168.79"/>
<polygon fill="black" stroke="black" points="4844.5,-168.79 4848,-178.79 4851.5,-168.79 4844.5,-168.79"/>
</g>
<!-- AppRoutingModule -->
<g id="node44" class="node">
<title>AppRoutingModule</title>
<polygon fill="#8dd3c7" stroke="black" points="7579.27,-84.8 7576.27,-88.8 7555.27,-88.8 7552.27,-84.8 7450.73,-84.8 7450.73,-48.8 7579.27,-48.8 7579.27,-84.8"/>
<text text-anchor="middle" x="7515" y="-62.6" font-family="Times,serif" font-size="14.00">AppRoutingModule</text>
</g>
<!-- AppRoutingModule&#45;&gt;AppModule -->
<g id="edge43" class="edge">
<title>AppRoutingModule&#45;&gt;AppModule</title>
<path fill="none" stroke="black" d="M7515,-85.11C7515,-104.95 7515,-133.8 7515,-133.8 7515,-133.8 4899.89,-133.8 4899.89,-133.8"/>
<polygon fill="black" stroke="black" points="4899.89,-130.3 4889.89,-133.8 4899.89,-137.3 4899.89,-130.3"/>
</g>
<!-- AdminService -->
<g id="node46" class="node">
<title>AdminService</title>
<ellipse fill="#fdb462" stroke="black" cx="9399" cy="-66.8" rx="66.63" ry="18"/>
<text text-anchor="middle" x="9399" y="-62.6" font-family="Times,serif" font-size="14.00">AdminService</text>
</g>
<!-- AdminService&#45;&gt;AppModule -->
<g id="edge45" class="edge">
<title>AdminService&#45;&gt;AppModule</title>
<path fill="none" stroke="black" d="M9399,-85C9399,-109.16 9399,-148.8 9399,-148.8 9399,-148.8 4899.79,-148.8 4899.79,-148.8"/>
<polygon fill="black" stroke="black" points="4899.79,-145.3 4889.79,-148.8 4899.79,-152.3 4899.79,-145.3"/>
</g>
<!-- CartService -->
<g id="node47" class="node">
<title>CartService</title>
<ellipse fill="#fdb462" stroke="black" cx="9258" cy="-66.8" rx="56.73" ry="18"/>
<text text-anchor="middle" x="9258" y="-62.6" font-family="Times,serif" font-size="14.00">CartService</text>
</g>
<!-- CartService&#45;&gt;AppModule -->
<g id="edge46" class="edge">
<title>CartService&#45;&gt;AppModule</title>
<path fill="none" stroke="black" d="M9258,-85.18C9258,-109.08 9258,-147.8 9258,-147.8 9258,-147.8 4899.88,-147.8 4899.88,-147.8"/>
<polygon fill="black" stroke="black" points="4899.88,-144.3 4889.88,-147.8 4899.88,-151.3 4899.88,-144.3"/>
</g>
<!-- ChefService -->
<g id="node48" class="node">
<title>ChefService</title>
<ellipse fill="#fdb462" stroke="black" cx="9125" cy="-66.8" rx="58.53" ry="18"/>
<text text-anchor="middle" x="9125" y="-62.6" font-family="Times,serif" font-size="14.00">ChefService</text>
</g>
<!-- ChefService&#45;&gt;AppModule -->
<g id="edge47" class="edge">
<title>ChefService&#45;&gt;AppModule</title>
<path fill="none" stroke="black" d="M9125,-85.12C9125,-108.46 9125,-145.8 9125,-145.8 9125,-145.8 4899.99,-145.8 4899.99,-145.8"/>
<polygon fill="black" stroke="black" points="4899.99,-142.3 4889.99,-145.8 4899.99,-149.3 4899.99,-142.3"/>
</g>
<!-- CustomerService -->
<g id="node49" class="node">
<title>CustomerService</title>
<ellipse fill="#fdb462" stroke="black" cx="8971" cy="-66.8" rx="77.58" ry="18"/>
<text text-anchor="middle" x="8971" y="-62.6" font-family="Times,serif" font-size="14.00">CustomerService</text>
</g>
<!-- CustomerService&#45;&gt;AppModule -->
<g id="edge48" class="edge">
<title>CustomerService&#45;&gt;AppModule</title>
<path fill="none" stroke="black" d="M8971,-84.89C8971,-107.93 8971,-144.8 8971,-144.8 8971,-144.8 4899.81,-144.8 4899.81,-144.8"/>
<polygon fill="black" stroke="black" points="4899.81,-141.3 4889.81,-144.8 4899.81,-148.3 4899.81,-141.3"/>
</g>
<!-- CustomerTableService -->
<g id="node50" class="node">
<title>CustomerTableService</title>
<ellipse fill="#fdb462" stroke="black" cx="8776" cy="-66.8" rx="99.55" ry="18"/>
<text text-anchor="middle" x="8776" y="-62.6" font-family="Times,serif" font-size="14.00">CustomerTableService</text>
</g>
<!-- CustomerTableService&#45;&gt;AppModule -->
<g id="edge49" class="edge">
<title>CustomerTableService&#45;&gt;AppModule</title>
<path fill="none" stroke="black" d="M8776,-85.05C8776,-107.82 8776,-143.8 8776,-143.8 8776,-143.8 4899.78,-143.8 4899.78,-143.8"/>
<polygon fill="black" stroke="black" points="4899.78,-140.3 4889.78,-143.8 4899.78,-147.3 4899.78,-140.3"/>
</g>
<!-- FeedbackService -->
<g id="node51" class="node">
<title>FeedbackService</title>
<ellipse fill="#fdb462" stroke="black" cx="8581" cy="-66.8" rx="76.98" ry="18"/>
<text text-anchor="middle" x="8581" y="-62.6" font-family="Times,serif" font-size="14.00">FeedbackService</text>
</g>
<!-- FeedbackService&#45;&gt;AppModule -->
<g id="edge50" class="edge">
<title>FeedbackService&#45;&gt;AppModule</title>
<path fill="none" stroke="black" d="M8581,-84.96C8581,-107.15 8581,-141.8 8581,-141.8 8581,-141.8 4899.92,-141.8 4899.92,-141.8"/>
<polygon fill="black" stroke="black" points="4899.92,-138.3 4889.92,-141.8 4899.92,-145.3 4899.92,-138.3"/>
</g>
<!-- FoodCategoryService -->
<g id="node52" class="node">
<title>FoodCategoryService</title>
<ellipse fill="#fdb462" stroke="black" cx="8391" cy="-66.8" rx="95.49" ry="18"/>
<text text-anchor="middle" x="8391" y="-62.6" font-family="Times,serif" font-size="14.00">FoodCategoryService</text>
</g>
<!-- FoodCategoryService&#45;&gt;AppModule -->
<g id="edge51" class="edge">
<title>FoodCategoryService&#45;&gt;AppModule</title>
<path fill="none" stroke="black" d="M8391,-85.09C8391,-107.01 8391,-140.8 8391,-140.8 8391,-140.8 4899.95,-140.8 4899.95,-140.8"/>
<polygon fill="black" stroke="black" points="4899.95,-137.3 4889.95,-140.8 4899.95,-144.3 4899.95,-137.3"/>
</g>
<!-- FoodOrderService -->
<g id="node53" class="node">
<title>FoodOrderService</title>
<ellipse fill="#fdb462" stroke="black" cx="8195" cy="-66.8" rx="82.22" ry="18"/>
<text text-anchor="middle" x="8195" y="-62.6" font-family="Times,serif" font-size="14.00">FoodOrderService</text>
</g>
<!-- FoodOrderService&#45;&gt;AppModule -->
<g id="edge52" class="edge">
<title>FoodOrderService&#45;&gt;AppModule</title>
<path fill="none" stroke="black" d="M8195,-84.84C8195,-106.46 8195,-139.8 8195,-139.8 8195,-139.8 4899.71,-139.8 4899.71,-139.8"/>
<polygon fill="black" stroke="black" points="4899.71,-136.3 4889.71,-139.8 4899.71,-143.3 4899.71,-136.3"/>
</g>
<!-- FoodService -->
<g id="node54" class="node">
<title>FoodService</title>
<ellipse fill="#fdb462" stroke="black" cx="8035" cy="-66.8" rx="59.69" ry="18"/>
<text text-anchor="middle" x="8035" y="-62.6" font-family="Times,serif" font-size="14.00">FoodService</text>
</g>
<!-- FoodService&#45;&gt;AppModule -->
<g id="edge53" class="edge">
<title>FoodService&#45;&gt;AppModule</title>
<path fill="none" stroke="black" d="M8035,-85.08C8035,-106.12 8035,-137.8 8035,-137.8 8035,-137.8 4899.75,-137.8 4899.75,-137.8"/>
<polygon fill="black" stroke="black" points="4899.75,-134.3 4889.75,-137.8 4899.75,-141.3 4899.75,-134.3"/>
</g>
<!-- OrderStatusService -->
<g id="node55" class="node">
<title>OrderStatusService</title>
<ellipse fill="#fdb462" stroke="black" cx="7871" cy="-66.8" rx="86.23" ry="18"/>
<text text-anchor="middle" x="7871" y="-62.6" font-family="Times,serif" font-size="14.00">OrderStatusService</text>
</g>
<!-- OrderStatusService&#45;&gt;AppModule -->
<g id="edge54" class="edge">
<title>OrderStatusService&#45;&gt;AppModule</title>
<path fill="none" stroke="black" d="M7871,-84.83C7871,-105.57 7871,-136.8 7871,-136.8 7871,-136.8 4899.87,-136.8 4899.87,-136.8"/>
<polygon fill="black" stroke="black" points="4899.87,-133.3 4889.87,-136.8 4899.87,-140.3 4899.87,-133.3"/>
</g>
<!-- SupervisorService -->
<g id="node56" class="node">
<title>SupervisorService</title>
<ellipse fill="#fdb462" stroke="black" cx="7685" cy="-66.8" rx="81.66" ry="18"/>
<text text-anchor="middle" x="7685" y="-62.6" font-family="Times,serif" font-size="14.00">SupervisorService</text>
</g>
<!-- SupervisorService&#45;&gt;AppModule -->
<g id="edge55" class="edge">
<title>SupervisorService&#45;&gt;AppModule</title>
<path fill="none" stroke="black" d="M7685,-84.93C7685,-105.37 7685,-135.8 7685,-135.8 7685,-135.8 4899.75,-135.8 4899.75,-135.8"/>
<polygon fill="black" stroke="black" points="4899.75,-132.3 4889.75,-135.8 4899.75,-139.3 4899.75,-132.3"/>
</g>
</g>
</svg>
