<?xml version="1.0" encoding="UTF-8" standalone="no"?>
<!DOCTYPE svg PUBLIC "-//W3C//DTD SVG 1.1//EN"
 "http://www.w3.org/Graphics/SVG/1.1/DTD/svg11.dtd">
<!-- Generated by graphviz version 2.47.3 (20210619.1520)
 -->
<!-- Title: dependencies Pages: 1 -->
<svg width="9498pt" height="247pt"
 viewBox="0.00 0.00 9498.00 246.80" xmlns="http://www.w3.org/2000/svg" xmlns:xlink="http://www.w3.org/1999/xlink">
<g id="graph0" class="graph" transform="scale(1 1) rotate(0) translate(4 242.8)">
<title>dependencies</title>
<polygon fill="white" stroke="transparent" points="-4,4 -4,-242.8 9494,-242.8 9494,4 -4,4"/>
<text text-anchor="middle" x="4745" y="-8.2" font-family="sans-serif" font-size="14.00">dependencies</text>
<g id="clust1" class="cluster">
<title>cluster_AppModule</title>
<polygon fill="none" stroke="black" stroke-dasharray="1,5" points="8,-32.8 8,-230.8 9482,-230.8 9482,-32.8 8,-32.8"/>
</g>
<g id="clust2" class="cluster">
<title>cluster_AppModule_declarations</title>
<polygon fill="none" stroke="black" points="2055,-40.8 2055,-92.8 9474,-92.8 9474,-40.8 2055,-40.8"/>
</g>
<g id="clust45" class="cluster">
<title>cluster_AppModule_imports</title>
<polygon fill="none" stroke="black" points="1903,-40.8 1903,-92.8 2047,-92.8 2047,-40.8 1903,-40.8"/>
</g>
<g id="clust47" class="cluster">
<title>cluster_AppModule_bootstrap</title>
<polygon fill="none" stroke="black" points="4827,-170.8 4827,-222.8 4951,-222.8 4951,-170.8 4827,-170.8"/>
</g>
<g id="clust48" class="cluster">
<title>cluster_AppModule_providers</title>
<polygon fill="none" stroke="black" points="16,-40.8 16,-92.8 1895,-92.8 1895,-40.8 16,-40.8"/>
</g>
<!-- AcceptedOrdersComponent -->
<g id="node1" class="node">
<title>AcceptedOrdersComponent</title>
<polygon fill="#ffffb3" stroke="black" points="9466.28,-84.8 9293.72,-84.8 9293.72,-48.8 9466.28,-48.8 9466.28,-84.8"/>
<text text-anchor="middle" x="9380" y="-62.6" font-family="Times,serif" font-size="14.00">AcceptedOrdersComponent</text>
</g>
<!-- AppModule -->
<g id="node43" class="node">
<title>AppModule</title>
<polygon fill="#8dd3c7" stroke="black" points="4930.66,-149.8 4927.66,-153.8 4906.66,-153.8 4903.66,-149.8 4847.34,-149.8 4847.34,-113.8 4930.66,-113.8 4930.66,-149.8"/>
<text text-anchor="middle" x="4889" y="-127.6" font-family="Times,serif" font-size="14.00">AppModule</text>
</g>
<!-- AcceptedOrdersComponent&#45;&gt;AppModule -->
<g id="edge1" class="edge">
<title>AcceptedOrdersComponent&#45;&gt;AppModule</title>
<path fill="none" stroke="black" d="M9380,-85C9380,-109.16 9380,-148.8 9380,-148.8 9380,-148.8 4940.94,-148.8 4940.94,-148.8"/>
<polygon fill="black" stroke="black" points="4940.94,-145.3 4930.94,-148.8 4940.94,-152.3 4940.94,-145.3"/>
</g>
<!-- AddChefComponent -->
<g id="node2" class="node">
<title>AddChefComponent</title>
<polygon fill="#ffffb3" stroke="black" points="9276.15,-84.8 9143.85,-84.8 9143.85,-48.8 9276.15,-48.8 9276.15,-84.8"/>
<text text-anchor="middle" x="9210" y="-62.6" font-family="Times,serif" font-size="14.00">AddChefComponent</text>
</g>
<!-- AddChefComponent&#45;&gt;AppModule -->
<g id="edge2" class="edge">
<title>AddChefComponent&#45;&gt;AppModule</title>
<path fill="none" stroke="black" d="M9210,-85.18C9210,-109.08 9210,-147.8 9210,-147.8 9210,-147.8 4940.73,-147.8 4940.73,-147.8"/>
<polygon fill="black" stroke="black" points="4940.73,-144.3 4930.73,-147.8 4940.73,-151.3 4940.73,-144.3"/>
</g>
<!-- AddFoodCategoryComponent -->
<g id="node3" class="node">
<title>AddFoodCategoryComponent</title>
<polygon fill="#ffffb3" stroke="black" points="9125.54,-84.8 8940.46,-84.8 8940.46,-48.8 9125.54,-48.8 9125.54,-84.8"/>
<text text-anchor="middle" x="9033" y="-62.6" font-family="Times,serif" font-size="14.00">AddFoodCategoryComponent</text>
</g>
<!-- AddFoodCategoryComponent&#45;&gt;AppModule -->
<g id="edge3" class="edge">
<title>AddFoodCategoryComponent&#45;&gt;AppModule</title>
<path fill="none" stroke="black" d="M9033,-85.12C9033,-108.46 9033,-145.8 9033,-145.8 9033,-145.8 4940.69,-145.8 4940.69,-145.8"/>
<polygon fill="black" stroke="black" points="4940.69,-142.3 4930.69,-145.8 4940.69,-149.3 4940.69,-142.3"/>
</g>
<!-- AddFoodComponent -->
<g id="node4" class="node">
<title>AddFoodComponent</title>
<polygon fill="#ffffb3" stroke="black" points="8922.22,-84.8 8787.78,-84.8 8787.78,-48.8 8922.22,-48.8 8922.22,-84.8"/>
<text text-anchor="middle" x="8855" y="-62.6" font-family="Times,serif" font-size="14.00">AddFoodComponent</text>
</g>
<!-- AddFoodComponent&#45;&gt;AppModule -->
<g id="edge4" class="edge">
<title>AddFoodComponent&#45;&gt;AppModule</title>
<path fill="none" stroke="black" d="M8855,-84.89C8855,-107.93 8855,-144.8 8855,-144.8 8855,-144.8 4940.86,-144.8 4940.86,-144.8"/>
<polygon fill="black" stroke="black" points="4940.86,-141.3 4930.86,-144.8 4940.86,-148.3 4940.86,-141.3"/>
</g>
<!-- AddSupervisorComponent -->
<g id="node5" class="node">
<title>AddSupervisorComponent</title>
<polygon fill="#ffffb3" stroke="black" points="8770.09,-84.8 8603.91,-84.8 8603.91,-48.8 8770.09,-48.8 8770.09,-84.8"/>
<text text-anchor="middle" x="8687" y="-62.6" font-family="Times,serif" font-size="14.00">AddSupervisorComponent</text>
</g>
<!-- AddSupervisorComponent&#45;&gt;AppModule -->
<g id="edge5" class="edge">
<title>AddSupervisorComponent&#45;&gt;AppModule</title>
<path fill="none" stroke="black" d="M8687,-85.05C8687,-107.82 8687,-143.8 8687,-143.8 8687,-143.8 4940.68,-143.8 4940.68,-143.8"/>
<polygon fill="black" stroke="black" points="4940.68,-140.3 4930.68,-143.8 4940.68,-147.3 4940.68,-140.3"/>
</g>
<!-- AdminDashboardComponent -->
<g id="node6" class="node">
<title>AdminDashboardComponent</title>
<polygon fill="#ffffb3" stroke="black" points="8586.36,-84.8 8405.64,-84.8 8405.64,-48.8 8586.36,-48.8 8586.36,-84.8"/>
<text text-anchor="middle" x="8496" y="-62.6" font-family="Times,serif" font-size="14.00">AdminDashboardComponent</text>
</g>
<!-- AdminDashboardComponent&#45;&gt;AppModule -->
<g id="edge6" class="edge">
<title>AdminDashboardComponent&#45;&gt;AppModule</title>
<path fill="none" stroke="black" d="M8496,-84.96C8496,-107.15 8496,-141.8 8496,-141.8 8496,-141.8 4940.76,-141.8 4940.76,-141.8"/>
<polygon fill="black" stroke="black" points="4940.76,-138.3 4930.76,-141.8 4940.76,-145.3 4940.76,-138.3"/>
</g>
<!-- AdminSidebarComponent -->
<g id="node7" class="node">
<title>AdminSidebarComponent</title>
<polygon fill="#ffffb3" stroke="black" points="8387.48,-84.8 8224.52,-84.8 8224.52,-48.8 8387.48,-48.8 8387.48,-84.8"/>
<text text-anchor="middle" x="8306" y="-62.6" font-family="Times,serif" font-size="14.00">AdminSidebarComponent</text>
</g>
<!-- AdminSidebarComponent&#45;&gt;AppModule -->
<g id="edge7" class="edge">
<title>AdminSidebarComponent&#45;&gt;AppModule</title>
<path fill="none" stroke="black" d="M8306,-85.09C8306,-107.01 8306,-140.8 8306,-140.8 8306,-140.8 4940.67,-140.8 4940.67,-140.8"/>
<polygon fill="black" stroke="black" points="4940.67,-137.3 4930.67,-140.8 4940.67,-144.3 4940.67,-137.3"/>
</g>
<!-- AppComponent -->
<g id="node8" class="node">
<title>AppComponent</title>
<polygon fill="#ffffb3" stroke="black" points="8206.94,-84.8 8101.06,-84.8 8101.06,-48.8 8206.94,-48.8 8206.94,-84.8"/>
<text text-anchor="middle" x="8154" y="-62.6" font-family="Times,serif" font-size="14.00">AppComponent</text>
</g>
<!-- AppComponent&#45;&gt;AppModule -->
<g id="edge8" class="edge">
<title>AppComponent&#45;&gt;AppModule</title>
<path fill="none" stroke="black" d="M8154,-84.84C8154,-106.46 8154,-139.8 8154,-139.8 8154,-139.8 4940.88,-139.8 4940.88,-139.8"/>
<polygon fill="black" stroke="black" points="4940.88,-136.3 4930.88,-139.8 4940.88,-143.3 4940.88,-136.3"/>
</g>
<!-- BillComponent -->
<g id="node9" class="node">
<title>BillComponent</title>
<polygon fill="#ffffb3" stroke="black" points="8083.34,-84.8 7980.66,-84.8 7980.66,-48.8 8083.34,-48.8 8083.34,-84.8"/>
<text text-anchor="middle" x="8032" y="-62.6" font-family="Times,serif" font-size="14.00">BillComponent</text>
</g>
<!-- BillComponent&#45;&gt;AppModule -->
<g id="edge9" class="edge">
<title>BillComponent&#45;&gt;AppModule</title>
<path fill="none" stroke="black" d="M8032,-85.08C8032,-106.12 8032,-137.8 8032,-137.8 8032,-137.8 4940.76,-137.8 4940.76,-137.8"/>
<polygon fill="black" stroke="black" points="4940.76,-134.3 4930.76,-137.8 4940.76,-141.3 4940.76,-134.3"/>
</g>
<!-- ChefDashboardComponent -->
<g id="node10" class="node">
<title>ChefDashboardComponent</title>
<polygon fill="#ffffb3" stroke="black" points="7962.69,-84.8 7793.31,-84.8 7793.31,-48.8 7962.69,-48.8 7962.69,-84.8"/>
<text text-anchor="middle" x="7878" y="-62.6" font-family="Times,serif" font-size="14.00">ChefDashboardComponent</text>
</g>
<!-- ChefDashboardComponent&#45;&gt;AppModule -->
<g id="edge10" class="edge">
<title>ChefDashboardComponent&#45;&gt;AppModule</title>
<path fill="none" stroke="black" d="M7878,-84.83C7878,-105.57 7878,-136.8 7878,-136.8 7878,-136.8 4940.68,-136.8 4940.68,-136.8"/>
<polygon fill="black" stroke="black" points="4940.68,-133.3 4930.68,-136.8 4940.68,-140.3 4940.68,-133.3"/>
</g>
<!-- ChefSidebarComponent -->
<g id="node11" class="node">
<title>ChefSidebarComponent</title>
<polygon fill="#ffffb3" stroke="black" points="7775.81,-84.8 7624.19,-84.8 7624.19,-48.8 7775.81,-48.8 7775.81,-84.8"/>
<text text-anchor="middle" x="7700" y="-62.6" font-family="Times,serif" font-size="14.00">ChefSidebarComponent</text>
</g>
<!-- ChefSidebarComponent&#45;&gt;AppModule -->
<g id="edge11" class="edge">
<title>ChefSidebarComponent&#45;&gt;AppModule</title>
<path fill="none" stroke="black" d="M7700,-84.93C7700,-105.37 7700,-135.8 7700,-135.8 7700,-135.8 4940.92,-135.8 4940.92,-135.8"/>
<polygon fill="black" stroke="black" points="4940.92,-132.3 4930.92,-135.8 4940.92,-139.3 4940.92,-132.3"/>
</g>
<!-- CustomerHelpsComponent -->
<g id="node12" class="node">
<title>CustomerHelpsComponent</title>
<polygon fill="#ffffb3" stroke="black" points="7606.43,-84.8 7437.57,-84.8 7437.57,-48.8 7606.43,-48.8 7606.43,-84.8"/>
<text text-anchor="middle" x="7522" y="-62.6" font-family="Times,serif" font-size="14.00">CustomerHelpsComponent</text>
</g>
<!-- CustomerHelpsComponent&#45;&gt;AppModule -->
<g id="edge12" class="edge">
<title>CustomerHelpsComponent&#45;&gt;AppModule</title>
<path fill="none" stroke="black" d="M7522,-85.11C7522,-104.95 7522,-133.8 7522,-133.8 7522,-133.8 4940.89,-133.8 4940.89,-133.8"/>
<polygon fill="black" stroke="black" points="4940.89,-130.3 4930.89,-133.8 4940.89,-137.3 4940.89,-130.3"/>
</g>
<!-- CustomerRegisterComponent -->
<g id="node13" class="node">
<title>CustomerRegisterComponent</title>
<polygon fill="#ffffb3" stroke="black" points="7420.42,-84.8 7237.58,-84.8 7237.58,-48.8 7420.42,-48.8 7420.42,-84.8"/>
<text text-anchor="middle" x="7329" y="-62.6" font-family="Times,serif" font-size="14.00">CustomerRegisterComponent</text>
</g>
<!-- CustomerRegisterComponent&#45;&gt;AppModule -->
<g id="edge13" class="edge">
<title>CustomerRegisterComponent&#45;&gt;AppModule</title>
<path fill="none" stroke="black" d="M7329,-84.83C7329,-104.38 7329,-132.8 7329,-132.8 7329,-132.8 4940.84,-132.8 4940.84,-132.8"/>
<polygon fill="black" stroke="black" points="4940.84,-129.3 4930.84,-132.8 4940.84,-136.3 4940.84,-129.3"/>
</g>
<!-- CustomerSidebarComponent -->
<g id="node14" class="node">
<title>CustomerSidebarComponent</title>
<polygon fill="#ffffb3" stroke="black" points="7220.03,-84.8 7041.97,-84.8 7041.97,-48.8 7220.03,-48.8 7220.03,-84.8"/>
<text text-anchor="middle" x="7131" y="-62.6" font-family="Times,serif" font-size="14.00">CustomerSidebarComponent</text>
</g>
<!-- CustomerSidebarComponent&#45;&gt;AppModule -->
<g id="edge14" class="edge">
<title>CustomerSidebarComponent&#45;&gt;AppModule</title>
<path fill="none" stroke="black" d="M7131,-84.91C7131,-104.14 7131,-131.8 7131,-131.8 7131,-131.8 4940.8,-131.8 4940.8,-131.8"/>
<polygon fill="black" stroke="black" points="4940.8,-128.3 4930.8,-131.8 4940.8,-135.3 4940.8,-128.3"/>
</g>
<!-- FeedbackComponent -->
<g id="node15" class="node">
<title>FeedbackComponent</title>
<polygon fill="#ffffb3" stroke="black" points="7023.47,-84.8 6888.53,-84.8 6888.53,-48.8 7023.47,-48.8 7023.47,-84.8"/>
<text text-anchor="middle" x="6956" y="-62.6" font-family="Times,serif" font-size="14.00">FeedbackComponent</text>
</g>
<!-- FeedbackComponent&#45;&gt;AppModule -->
<g id="edge15" class="edge">
<title>FeedbackComponent&#45;&gt;AppModule</title>
<path fill="none" stroke="black" d="M6956,-85.02C6956,-103.63 6956,-129.8 6956,-129.8 6956,-129.8 4940.76,-129.8 4940.76,-129.8"/>
<polygon fill="black" stroke="black" points="4940.76,-126.3 4930.76,-129.8 4940.76,-133.3 4940.76,-126.3"/>
</g>
<!-- FoodStatusPipe -->
<g id="node16" class="node">
<title>FoodStatusPipe</title>
<polygon fill="#ffffb3" stroke="black" points="6870.89,-84.8 6767.11,-84.8 6767.11,-48.8 6870.89,-48.8 6870.89,-84.8"/>
<text text-anchor="middle" x="6819" y="-62.6" font-family="Times,serif" font-size="14.00">FoodStatusPipe</text>
</g>
<!-- FoodStatusPipe&#45;&gt;AppModule -->
<g id="edge16" class="edge">
<title>FoodStatusPipe&#45;&gt;AppModule</title>
<path fill="none" stroke="black" d="M6819,-85.07C6819,-103.36 6819,-128.8 6819,-128.8 6819,-128.8 4941.11,-128.8 4941.11,-128.8"/>
<polygon fill="black" stroke="black" points="4941.11,-125.3 4931.11,-128.8 4941.11,-132.3 4941.11,-125.3"/>
</g>
<!-- HeaderComponent -->
<g id="node17" class="node">
<title>HeaderComponent</title>
<polygon fill="#ffffb3" stroke="black" points="6748.74,-84.8 6627.26,-84.8 6627.26,-48.8 6748.74,-48.8 6748.74,-84.8"/>
<text text-anchor="middle" x="6688" y="-62.6" font-family="Times,serif" font-size="14.00">HeaderComponent</text>
</g>
<!-- HeaderComponent&#45;&gt;AppModule -->
<g id="edge17" class="edge">
<title>HeaderComponent&#45;&gt;AppModule</title>
<path fill="none" stroke="black" d="M6688,-85.1C6688,-103.07 6688,-127.8 6688,-127.8 6688,-127.8 4940.82,-127.8 4940.82,-127.8"/>
<polygon fill="black" stroke="black" points="4940.82,-124.3 4930.82,-127.8 4940.82,-131.3 4940.82,-124.3"/>
</g>
<!-- HelpComponent -->
<g id="node18" class="node">
<title>HelpComponent</title>
<polygon fill="#ffffb3" stroke="black" points="6609.05,-84.8 6500.95,-84.8 6500.95,-48.8 6609.05,-48.8 6609.05,-84.8"/>
<text text-anchor="middle" x="6555" y="-62.6" font-family="Times,serif" font-size="14.00">HelpComponent</text>
</g>
<!-- HelpComponent&#45;&gt;AppModule -->
<g id="edge18" class="edge">
<title>HelpComponent&#45;&gt;AppModule</title>
<path fill="none" stroke="black" d="M6555,-84.82C6555,-102.17 6555,-125.8 6555,-125.8 6555,-125.8 4941.02,-125.8 4941.02,-125.8"/>
<polygon fill="black" stroke="black" points="4941.02,-122.3 4931.02,-125.8 4941.02,-129.3 4941.02,-122.3"/>
</g>
<!-- HomeComponent -->
<g id="node19" class="node">
<title>HomeComponent</title>
<polygon fill="#ffffb3" stroke="black" points="6482.55,-84.8 6367.45,-84.8 6367.45,-48.8 6482.55,-48.8 6482.55,-84.8"/>
<text text-anchor="middle" x="6425" y="-62.6" font-family="Times,serif" font-size="14.00">HomeComponent</text>
</g>
<!-- HomeComponent&#45;&gt;AppModule -->
<g id="edge19" class="edge">
<title>HomeComponent&#45;&gt;AppModule</title>
<path fill="none" stroke="black" d="M6425,-84.83C6425,-101.86 6425,-124.8 6425,-124.8 6425,-124.8 4940.88,-124.8 4940.88,-124.8"/>
<polygon fill="black" stroke="black" points="4940.88,-121.3 4930.88,-124.8 4940.88,-128.3 4940.88,-121.3"/>
</g>
<!-- LoginComponent -->
<g id="node20" class="node">
<title>LoginComponent</title>
<polygon fill="#ffffb3" stroke="black" points="6349.28,-84.8 6234.72,-84.8 6234.72,-48.8 6349.28,-48.8 6349.28,-84.8"/>
<text text-anchor="middle" x="6292" y="-62.6" font-family="Times,serif" font-size="14.00">LoginComponent</text>
</g>
<!-- LoginComponent&#45;&gt;AppModule -->
<g id="edge20" class="edge">
<title>LoginComponent&#45;&gt;AppModule</title>
<path fill="none" stroke="black" d="M6292,-84.84C6292,-101.53 6292,-123.8 6292,-123.8 6292,-123.8 4940.99,-123.8 4940.99,-123.8"/>
<polygon fill="black" stroke="black" points="4940.99,-120.3 4930.99,-123.8 4940.99,-127.3 4940.99,-120.3"/>
</g>
<!-- ManageChefComponent -->
<g id="node21" class="node">
<title>ManageChefComponent</title>
<polygon fill="#ffffb3" stroke="black" points="6216.63,-84.8 6063.37,-84.8 6063.37,-48.8 6216.63,-48.8 6216.63,-84.8"/>
<text text-anchor="middle" x="6140" y="-62.6" font-family="Times,serif" font-size="14.00">ManageChefComponent</text>
</g>
<!-- ManageChefComponent&#45;&gt;AppModule -->
<g id="edge21" class="edge">
<title>ManageChefComponent&#45;&gt;AppModule</title>
<path fill="none" stroke="black" d="M6140,-84.81C6140,-100.85 6140,-121.8 6140,-121.8 6140,-121.8 4940.98,-121.8 4940.98,-121.8"/>
<polygon fill="black" stroke="black" points="4940.98,-118.3 4930.98,-121.8 4940.98,-125.3 4940.98,-118.3"/>
</g>
<!-- ManageFoodCategoryComponent -->
<g id="node22" class="node">
<title>ManageFoodCategoryComponent</title>
<polygon fill="#ffffb3" stroke="black" points="6045.02,-84.8 5838.98,-84.8 5838.98,-48.8 6045.02,-48.8 6045.02,-84.8"/>
<text text-anchor="middle" x="5942" y="-62.6" font-family="Times,serif" font-size="14.00">ManageFoodCategoryComponent</text>
</g>
<!-- ManageFoodCategoryComponent&#45;&gt;AppModule -->
<g id="edge22" class="edge">
<title>ManageFoodCategoryComponent&#45;&gt;AppModule</title>
<path fill="none" stroke="black" d="M5942,-85.08C5942,-100.75 5942,-120.8 5942,-120.8 5942,-120.8 4940.93,-120.8 4940.93,-120.8"/>
<polygon fill="black" stroke="black" points="4940.93,-117.3 4930.93,-120.8 4940.93,-124.3 4940.93,-117.3"/>
</g>
<!-- ManageFoodComponent -->
<g id="node23" class="node">
<title>ManageFoodComponent</title>
<polygon fill="#ffffb3" stroke="black" points="5820.7,-84.8 5665.3,-84.8 5665.3,-48.8 5820.7,-48.8 5820.7,-84.8"/>
<text text-anchor="middle" x="5743" y="-62.6" font-family="Times,serif" font-size="14.00">ManageFoodComponent</text>
</g>
<!-- ManageFoodComponent&#45;&gt;AppModule -->
<g id="edge23" class="edge">
<title>ManageFoodComponent&#45;&gt;AppModule</title>
<path fill="none" stroke="black" d="M5743,-85.04C5743,-100.37 5743,-119.8 5743,-119.8 5743,-119.8 4940.77,-119.8 4940.77,-119.8"/>
<polygon fill="black" stroke="black" points="4940.77,-116.3 4930.77,-119.8 4940.77,-123.3 4940.77,-116.3"/>
</g>
<!-- ManageSupervisorComponent -->
<g id="node24" class="node">
<title>ManageSupervisorComponent</title>
<polygon fill="#ffffb3" stroke="black" points="5647.57,-84.8 5460.43,-84.8 5460.43,-48.8 5647.57,-48.8 5647.57,-84.8"/>
<text text-anchor="middle" x="5554" y="-62.6" font-family="Times,serif" font-size="14.00">ManageSupervisorComponent</text>
</g>
<!-- ManageSupervisorComponent&#45;&gt;AppModule -->
<g id="edge24" class="edge">
<title>ManageSupervisorComponent&#45;&gt;AppModule</title>
<path fill="none" stroke="black" d="M5554,-84.92C5554,-99.58 5554,-117.8 5554,-117.8 5554,-117.8 4940.85,-117.8 4940.85,-117.8"/>
<polygon fill="black" stroke="black" points="4940.85,-114.3 4930.85,-117.8 4940.85,-121.3 4940.85,-114.3"/>
</g>
<!-- OrderCancellationRequestComponent -->
<g id="node25" class="node">
<title>OrderCancellationRequestComponent</title>
<polygon fill="#ffffb3" stroke="black" points="5442.83,-84.8 5213.17,-84.8 5213.17,-48.8 5442.83,-48.8 5442.83,-84.8"/>
<text text-anchor="middle" x="5328" y="-62.6" font-family="Times,serif" font-size="14.00">OrderCancellationRequestComponent</text>
</g>
<!-- OrderCancellationRequestComponent&#45;&gt;AppModule -->
<g id="edge25" class="edge">
<title>OrderCancellationRequestComponent&#45;&gt;AppModule</title>
<path fill="none" stroke="black" d="M5328,-84.85C5328,-99.17 5328,-116.8 5328,-116.8 5328,-116.8 4940.7,-116.8 4940.7,-116.8"/>
<polygon fill="black" stroke="black" points="4940.7,-113.3 4930.7,-116.8 4940.7,-120.3 4940.7,-113.3"/>
</g>
<!-- PaymentComponent -->
<g id="node26" class="node">
<title>PaymentComponent</title>
<polygon fill="#ffffb3" stroke="black" points="5195.33,-84.8 5064.67,-84.8 5064.67,-48.8 5195.33,-48.8 5195.33,-84.8"/>
<text text-anchor="middle" x="5130" y="-62.6" font-family="Times,serif" font-size="14.00">PaymentComponent</text>
</g>
<!-- PaymentComponent&#45;&gt;AppModule -->
<g id="edge26" class="edge">
<title>PaymentComponent&#45;&gt;AppModule</title>
<path fill="none" stroke="black" d="M5130,-85.05C5130,-98.98 5130,-115.8 5130,-115.8 5130,-115.8 4940.7,-115.8 4940.7,-115.8"/>
<polygon fill="black" stroke="black" points="4940.7,-112.3 4930.7,-115.8 4940.7,-119.3 4940.7,-112.3"/>
</g>
<!-- PendingBillsComponent -->
<g id="node27" class="node">
<title>PendingBillsComponent</title>
<polygon fill="#ffffb3" stroke="black" points="5046.67,-84.8 4893.33,-84.8 4893.33,-48.8 5046.67,-48.8 5046.67,-84.8"/>
<text text-anchor="middle" x="4970" y="-62.6" font-family="Times,serif" font-size="14.00">PendingBillsComponent</text>
</g>
<!-- PendingBillsComponent&#45;&gt;AppModule -->
<g id="edge27" class="edge">
<title>PendingBillsComponent&#45;&gt;AppModule</title>
<path fill="none" stroke="black" d="M4912,-84.91C4912,-84.91 4912,-103.79 4912,-103.79"/>
<polygon fill="black" stroke="black" points="4908.5,-103.79 4912,-113.79 4915.5,-103.79 4908.5,-103.79"/>
</g>
<!-- RevfoodsComponent -->
<g id="node28" class="node">
<title>RevfoodsComponent</title>
<polygon fill="#ffffb3" stroke="black" points="4875.49,-84.8 4740.51,-84.8 4740.51,-48.8 4875.49,-48.8 4875.49,-84.8"/>
<text text-anchor="middle" x="4808" y="-62.6" font-family="Times,serif" font-size="14.00">RevfoodsComponent</text>
</g>
<!-- RevfoodsComponent&#45;&gt;AppModule -->
<g id="edge28" class="edge">
<title>RevfoodsComponent&#45;&gt;AppModule</title>
<path fill="none" stroke="black" d="M4861.33,-84.91C4861.33,-84.91 4861.33,-103.79 4861.33,-103.79"/>
<polygon fill="black" stroke="black" points="4857.83,-103.79 4861.33,-113.79 4864.83,-103.79 4857.83,-103.79"/>
</g>
<!-- ServedOrdersComponent -->
<g id="node29" class="node">
<title>ServedOrdersComponent</title>
<polygon fill="#ffffb3" stroke="black" points="4722.29,-84.8 4563.71,-84.8 4563.71,-48.8 4722.29,-48.8 4722.29,-84.8"/>
<text text-anchor="middle" x="4643" y="-62.6" font-family="Times,serif" font-size="14.00">ServedOrdersComponent</text>
</g>
<!-- ServedOrdersComponent&#45;&gt;AppModule -->
<g id="edge29" class="edge">
<title>ServedOrdersComponent&#45;&gt;AppModule</title>
<path fill="none" stroke="black" d="M4643,-85.05C4643,-98.98 4643,-115.8 4643,-115.8 4643,-115.8 4837.27,-115.8 4837.27,-115.8"/>
<polygon fill="black" stroke="black" points="4837.27,-119.3 4847.27,-115.8 4837.27,-112.3 4837.27,-119.3"/>
</g>
<!-- SubHomeComponent -->
<g id="node30" class="node">
<title>SubHomeComponent</title>
<polygon fill="#ffffb3" stroke="black" points="4545.83,-84.8 4408.17,-84.8 4408.17,-48.8 4545.83,-48.8 4545.83,-84.8"/>
<text text-anchor="middle" x="4477" y="-62.6" font-family="Times,serif" font-size="14.00">SubHomeComponent</text>
</g>
<!-- SubHomeComponent&#45;&gt;AppModule -->
<g id="edge30" class="edge">
<title>SubHomeComponent&#45;&gt;AppModule</title>
<path fill="none" stroke="black" d="M4477,-84.85C4477,-99.17 4477,-116.8 4477,-116.8 4477,-116.8 4837.23,-116.8 4837.23,-116.8"/>
<polygon fill="black" stroke="black" points="4837.23,-120.3 4847.23,-116.8 4837.23,-113.3 4837.23,-120.3"/>
</g>
<!-- SupervisorDashboardComponent -->
<g id="node31" class="node">
<title>SupervisorDashboardComponent</title>
<polygon fill="#ffffb3" stroke="black" points="4390.13,-84.8 4187.87,-84.8 4187.87,-48.8 4390.13,-48.8 4390.13,-84.8"/>
<text text-anchor="middle" x="4289" y="-62.6" font-family="Times,serif" font-size="14.00">SupervisorDashboardComponent</text>
</g>
<!-- SupervisorDashboardComponent&#45;&gt;AppModule -->
<g id="edge31" class="edge">
<title>SupervisorDashboardComponent&#45;&gt;AppModule</title>
<path fill="none" stroke="black" d="M4289,-84.92C4289,-99.58 4289,-117.8 4289,-117.8 4289,-117.8 4837.29,-117.8 4837.29,-117.8"/>
<polygon fill="black" stroke="black" points="4837.29,-121.3 4847.29,-117.8 4837.29,-114.3 4837.29,-121.3"/>
</g>
<!-- SupervisorSidebarComponent -->
<g id="node32" class="node">
<title>SupervisorSidebarComponent</title>
<polygon fill="#ffffb3" stroke="black" points="4169.25,-84.8 3984.75,-84.8 3984.75,-48.8 4169.25,-48.8 4169.25,-84.8"/>
<text text-anchor="middle" x="4077" y="-62.6" font-family="Times,serif" font-size="14.00">SupervisorSidebarComponent</text>
</g>
<!-- SupervisorSidebarComponent&#45;&gt;AppModule -->
<g id="edge32" class="edge">
<title>SupervisorSidebarComponent&#45;&gt;AppModule</title>
<path fill="none" stroke="black" d="M4077,-85.04C4077,-100.37 4077,-119.8 4077,-119.8 4077,-119.8 4837.34,-119.8 4837.34,-119.8"/>
<polygon fill="black" stroke="black" points="4837.34,-123.3 4847.34,-119.8 4837.34,-116.3 4837.34,-123.3"/>
</g>
<!-- TotalFoodOrderPricePipe -->
<g id="node33" class="node">
<title>TotalFoodOrderPricePipe</title>
<polygon fill="#ffffb3" stroke="black" points="3966.12,-84.8 3805.88,-84.8 3805.88,-48.8 3966.12,-48.8 3966.12,-84.8"/>
<text text-anchor="middle" x="3886" y="-62.6" font-family="Times,serif" font-size="14.00">TotalFoodOrderPricePipe</text>
</g>
<!-- TotalFoodOrderPricePipe&#45;&gt;AppModule -->
<g id="edge33" class="edge">
<title>TotalFoodOrderPricePipe&#45;&gt;AppModule</title>
<path fill="none" stroke="black" d="M3886,-85.08C3886,-100.75 3886,-120.8 3886,-120.8 3886,-120.8 4837.18,-120.8 4837.18,-120.8"/>
<polygon fill="black" stroke="black" points="4837.18,-124.3 4847.18,-120.8 4837.18,-117.3 4837.18,-124.3"/>
</g>
<!-- UpdateChefComponent -->
<g id="node34" class="node">
<title>UpdateChefComponent</title>
<polygon fill="#ffffb3" stroke="black" points="3787.47,-84.8 3638.53,-84.8 3638.53,-48.8 3787.47,-48.8 3787.47,-84.8"/>
<text text-anchor="middle" x="3713" y="-62.6" font-family="Times,serif" font-size="14.00">UpdateChefComponent</text>
</g>
<!-- UpdateChefComponent&#45;&gt;AppModule -->
<g id="edge34" class="edge">
<title>UpdateChefComponent&#45;&gt;AppModule</title>
<path fill="none" stroke="black" d="M3713,-84.81C3713,-100.85 3713,-121.8 3713,-121.8 3713,-121.8 4837.15,-121.8 4837.15,-121.8"/>
<polygon fill="black" stroke="black" points="4837.15,-125.3 4847.15,-121.8 4837.15,-118.3 4837.15,-125.3"/>
</g>
<!-- UpdateFoodCategoryComponent -->
<g id="node35" class="node">
<title>UpdateFoodCategoryComponent</title>
<polygon fill="#ffffb3" stroke="black" points="3620.86,-84.8 3419.14,-84.8 3419.14,-48.8 3620.86,-48.8 3620.86,-84.8"/>
<text text-anchor="middle" x="3520" y="-62.6" font-family="Times,serif" font-size="14.00">UpdateFoodCategoryComponent</text>
</g>
<!-- UpdateFoodCategoryComponent&#45;&gt;AppModule -->
<g id="edge35" class="edge">
<title>UpdateFoodCategoryComponent&#45;&gt;AppModule</title>
<path fill="none" stroke="black" d="M3520,-84.84C3520,-101.53 3520,-123.8 3520,-123.8 3520,-123.8 4837.28,-123.8 4837.28,-123.8"/>
<polygon fill="black" stroke="black" points="4837.28,-127.3 4847.28,-123.8 4837.28,-120.3 4837.28,-127.3"/>
</g>
<!-- UpdateFoodComponent -->
<g id="node36" class="node">
<title>UpdateFoodComponent</title>
<polygon fill="#ffffb3" stroke="black" points="3401.04,-84.8 3250.96,-84.8 3250.96,-48.8 3401.04,-48.8 3401.04,-84.8"/>
<text text-anchor="middle" x="3326" y="-62.6" font-family="Times,serif" font-size="14.00">UpdateFoodComponent</text>
</g>
<!-- UpdateFoodComponent&#45;&gt;AppModule -->
<g id="edge36" class="edge">
<title>UpdateFoodComponent&#45;&gt;AppModule</title>
<path fill="none" stroke="black" d="M3326,-84.83C3326,-101.86 3326,-124.8 3326,-124.8 3326,-124.8 4837.19,-124.8 4837.19,-124.8"/>
<polygon fill="black" stroke="black" points="4837.19,-128.3 4847.19,-124.8 4837.19,-121.3 4837.19,-128.3"/>
</g>
<!-- UpdateSupervisorComponent -->
<g id="node37" class="node">
<title>UpdateSupervisorComponent</title>
<polygon fill="#ffffb3" stroke="black" points="3233.41,-84.8 3050.59,-84.8 3050.59,-48.8 3233.41,-48.8 3233.41,-84.8"/>
<text text-anchor="middle" x="3142" y="-62.6" font-family="Times,serif" font-size="14.00">UpdateSupervisorComponent</text>
</g>
<!-- UpdateSupervisorComponent&#45;&gt;AppModule -->
<g id="edge37" class="edge">
<title>UpdateSupervisorComponent&#45;&gt;AppModule</title>
<path fill="none" stroke="black" d="M3142,-84.82C3142,-102.17 3142,-125.8 3142,-125.8 3142,-125.8 4837.11,-125.8 4837.11,-125.8"/>
<polygon fill="black" stroke="black" points="4837.11,-129.3 4847.11,-125.8 4837.11,-122.3 4837.11,-129.3"/>
</g>
<!-- ViewCartComponent -->
<g id="node38" class="node">
<title>ViewCartComponent</title>
<polygon fill="#ffffb3" stroke="black" points="3032.75,-84.8 2897.25,-84.8 2897.25,-48.8 3032.75,-48.8 3032.75,-84.8"/>
<text text-anchor="middle" x="2965" y="-62.6" font-family="Times,serif" font-size="14.00">ViewCartComponent</text>
</g>
<!-- ViewCartComponent&#45;&gt;AppModule -->
<g id="edge38" class="edge">
<title>ViewCartComponent&#45;&gt;AppModule</title>
<path fill="none" stroke="black" d="M2965,-85.1C2965,-103.07 2965,-127.8 2965,-127.8 2965,-127.8 4837.03,-127.8 4837.03,-127.8"/>
<polygon fill="black" stroke="black" points="4837.03,-131.3 4847.03,-127.8 4837.03,-124.3 4837.03,-131.3"/>
</g>
<!-- ViewCustomerOrdersComponent -->
<g id="node39" class="node">
<title>ViewCustomerOrdersComponent</title>
<polygon fill="#ffffb3" stroke="black" points="2879.18,-84.8 2674.82,-84.8 2674.82,-48.8 2879.18,-48.8 2879.18,-84.8"/>
<text text-anchor="middle" x="2777" y="-62.6" font-family="Times,serif" font-size="14.00">ViewCustomerOrdersComponent</text>
</g>
<!-- ViewCustomerOrdersComponent&#45;&gt;AppModule -->
<g id="edge39" class="edge">
<title>ViewCustomerOrdersComponent&#45;&gt;AppModule</title>
<path fill="none" stroke="black" d="M2777,-85.07C2777,-103.36 2777,-128.8 2777,-128.8 2777,-128.8 4837.29,-128.8 4837.29,-128.8"/>
<polygon fill="black" stroke="black" points="4837.29,-132.3 4847.29,-128.8 4837.29,-125.3 4837.29,-132.3"/>
</g>
<!-- ViewFoodCategoryComponent -->
<g id="node40" class="node">
<title>ViewFoodCategoryComponent</title>
<polygon fill="#ffffb3" stroke="black" points="2656.75,-84.8 2465.25,-84.8 2465.25,-48.8 2656.75,-48.8 2656.75,-84.8"/>
<text text-anchor="middle" x="2561" y="-62.6" font-family="Times,serif" font-size="14.00">ViewFoodCategoryComponent</text>
</g>
<!-- ViewFoodCategoryComponent&#45;&gt;AppModule -->
<g id="edge40" class="edge">
<title>ViewFoodCategoryComponent&#45;&gt;AppModule</title>
<path fill="none" stroke="black" d="M2561,-85.02C2561,-103.63 2561,-129.8 2561,-129.8 2561,-129.8 4837.11,-129.8 4837.11,-129.8"/>
<polygon fill="black" stroke="black" points="4837.11,-133.3 4847.11,-129.8 4837.11,-126.3 4837.11,-133.3"/>
</g>
<!-- ViewOrdersComponent -->
<g id="node41" class="node">
<title>ViewOrdersComponent</title>
<polygon fill="#ffffb3" stroke="black" points="2446.74,-84.8 2297.26,-84.8 2297.26,-48.8 2446.74,-48.8 2446.74,-84.8"/>
<text text-anchor="middle" x="2372" y="-62.6" font-family="Times,serif" font-size="14.00">ViewOrdersComponent</text>
</g>
<!-- ViewOrdersComponent&#45;&gt;AppModule -->
<g id="edge41" class="edge">
<title>ViewOrdersComponent&#45;&gt;AppModule</title>
<path fill="none" stroke="black" d="M2372,-84.91C2372,-104.14 2372,-131.8 2372,-131.8 2372,-131.8 4837.15,-131.8 4837.15,-131.8"/>
<polygon fill="black" stroke="black" points="4837.15,-135.3 4847.15,-131.8 4837.15,-128.3 4837.15,-135.3"/>
</g>
<!-- ViewUnoccupiedTablesComponent -->
<g id="node42" class="node">
<title>ViewUnoccupiedTablesComponent</title>
<polygon fill="#ffffb3" stroke="black" points="2279.11,-84.8 2062.89,-84.8 2062.89,-48.8 2279.11,-48.8 2279.11,-84.8"/>
<text text-anchor="middle" x="2171" y="-62.6" font-family="Times,serif" font-size="14.00">ViewUnoccupiedTablesComponent</text>
</g>
<!-- ViewUnoccupiedTablesComponent&#45;&gt;AppModule -->
<g id="edge42" class="edge">
<title>ViewUnoccupiedTablesComponent&#45;&gt;AppModule</title>
<path fill="none" stroke="black" d="M2171,-84.83C2171,-104.38 2171,-132.8 2171,-132.8 2171,-132.8 4837.12,-132.8 4837.12,-132.8"/>
<polygon fill="black" stroke="black" points="4837.12,-136.3 4847.12,-132.8 4837.12,-129.3 4837.12,-136.3"/>
</g>
<!-- AppComponent  -->
<g id="node45" class="node">
<title>AppComponent </title>
<polygon fill="#80b1d3" stroke="black" points="4943.44,-214.8 4834.56,-214.8 4834.56,-178.8 4943.44,-178.8 4943.44,-214.8"/>
<text text-anchor="middle" x="4889" y="-192.6" font-family="Times,serif" font-size="14.00">AppComponent </text>
</g>
<!-- AppModule&#45;&gt;AppComponent  -->
<g id="edge44" class="edge">
<title>AppModule&#45;&gt;AppComponent </title>
<path fill="none" stroke="black" stroke-dasharray="1,5" d="M4889,-149.91C4889,-149.91 4889,-168.79 4889,-168.79"/>
<polygon fill="black" stroke="black" points="4885.5,-168.79 4889,-178.79 4892.5,-168.79 4885.5,-168.79"/>
</g>
<!-- AppRoutingModule -->
<g id="node44" class="node">
<title>AppRoutingModule</title>
<polygon fill="#8dd3c7" stroke="black" points="2039.27,-84.8 2036.27,-88.8 2015.27,-88.8 2012.27,-84.8 1910.73,-84.8 1910.73,-48.8 2039.27,-48.8 2039.27,-84.8"/>
<text text-anchor="middle" x="1975" y="-62.6" font-family="Times,serif" font-size="14.00">AppRoutingModule</text>
</g>
<!-- AppRoutingModule&#45;&gt;AppModule -->
<g id="edge43" class="edge">
<title>AppRoutingModule&#45;&gt;AppModule</title>
<path fill="none" stroke="black" d="M1975,-85.11C1975,-104.95 1975,-133.8 1975,-133.8 1975,-133.8 4837.25,-133.8 4837.25,-133.8"/>
<polygon fill="black" stroke="black" points="4837.25,-137.3 4847.25,-133.8 4837.25,-130.3 4837.25,-137.3"/>
</g>
<!-- AdminService -->
<g id="node46" class="node">
<title>AdminService</title>
<ellipse fill="#fdb462" stroke="black" cx="1820" cy="-66.8" rx="66.63" ry="18"/>
<text text-anchor="middle" x="1820" y="-62.6" font-family="Times,serif" font-size="14.00">AdminService</text>
</g>
<!-- AdminService&#45;&gt;AppModule -->
<g id="edge45" class="edge">
<title>AdminService&#45;&gt;AppModule</title>
<path fill="none" stroke="black" d="M1820,-84.93C1820,-105.37 1820,-135.8 1820,-135.8 1820,-135.8 4837.07,-135.8 4837.07,-135.8"/>
<polygon fill="black" stroke="black" points="4837.07,-139.3 4847.07,-135.8 4837.07,-132.3 4837.07,-139.3"/>
</g>
<!-- CartService -->
<g id="node47" class="node">
<title>CartService</title>
<ellipse fill="#fdb462" stroke="black" cx="1679" cy="-66.8" rx="56.73" ry="18"/>
<text text-anchor="middle" x="1679" y="-62.6" font-family="Times,serif" font-size="14.00">CartService</text>
</g>
<!-- CartService&#45;&gt;AppModule -->
<g id="edge46" class="edge">
<title>CartService&#45;&gt;AppModule</title>
<path fill="none" stroke="black" d="M1679,-84.83C1679,-105.57 1679,-136.8 1679,-136.8 1679,-136.8 4837.24,-136.8 4837.24,-136.8"/>
<polygon fill="black" stroke="black" points="4837.24,-140.3 4847.24,-136.8 4837.24,-133.3 4837.24,-140.3"/>
</g>
<!-- ChefService -->
<g id="node48" class="node">
<title>ChefService</title>
<ellipse fill="#fdb462" stroke="black" cx="1546" cy="-66.8" rx="58.53" ry="18"/>
<text text-anchor="middle" x="1546" y="-62.6" font-family="Times,serif" font-size="14.00">ChefService</text>
</g>
<!-- ChefService&#45;&gt;AppModule -->
<g id="edge47" class="edge">
<title>ChefService&#45;&gt;AppModule</title>
<path fill="none" stroke="black" d="M1546,-85.08C1546,-106.12 1546,-137.8 1546,-137.8 1546,-137.8 4837.34,-137.8 4837.34,-137.8"/>
<polygon fill="black" stroke="black" points="4837.34,-141.3 4847.34,-137.8 4837.34,-134.3 4837.34,-141.3"/>
</g>
<!-- CustomerService -->
<g id="node49" class="node">
<title>CustomerService</title>
<ellipse fill="#fdb462" stroke="black" cx="1392" cy="-66.8" rx="77.58" ry="18"/>
<text text-anchor="middle" x="1392" y="-62.6" font-family="Times,serif" font-size="14.00">CustomerService</text>
</g>
<!-- CustomerService&#45;&gt;AppModule -->
<g id="edge48" class="edge">
<title>CustomerService&#45;&gt;AppModule</title>
<path fill="none" stroke="black" d="M1392,-84.84C1392,-106.46 1392,-139.8 1392,-139.8 1392,-139.8 4837.29,-139.8 4837.29,-139.8"/>
<polygon fill="black" stroke="black" points="4837.29,-143.3 4847.29,-139.8 4837.29,-136.3 4837.29,-143.3"/>
</g>
<!-- CustomerTableService -->
<g id="node50" class="node">
<title>CustomerTableService</title>
<ellipse fill="#fdb462" stroke="black" cx="1197" cy="-66.8" rx="99.55" ry="18"/>
<text text-anchor="middle" x="1197" y="-62.6" font-family="Times,serif" font-size="14.00">CustomerTableService</text>
</g>
<!-- CustomerTableService&#45;&gt;AppModule -->
<g id="edge49" class="edge">
<title>CustomerTableService&#45;&gt;AppModule</title>
<path fill="none" stroke="black" d="M1197,-85.09C1197,-107.01 1197,-140.8 1197,-140.8 1197,-140.8 4837.22,-140.8 4837.22,-140.8"/>
<polygon fill="black" stroke="black" points="4837.22,-144.3 4847.22,-140.8 4837.22,-137.3 4837.22,-144.3"/>
</g>
<!-- FeedbackService -->
<g id="node51" class="node">
<title>FeedbackService</title>
<ellipse fill="#fdb462" stroke="black" cx="1002" cy="-66.8" rx="76.98" ry="18"/>
<text text-anchor="middle" x="1002" y="-62.6" font-family="Times,serif" font-size="14.00">FeedbackService</text>
</g>
<!-- FeedbackService&#45;&gt;AppModule -->
<g id="edge50" class="edge">
<title>FeedbackService&#45;&gt;AppModule</title>
<path fill="none" stroke="black" d="M1002,-84.96C1002,-107.15 1002,-141.8 1002,-141.8 1002,-141.8 4837.33,-141.8 4837.33,-141.8"/>
<polygon fill="black" stroke="black" points="4837.33,-145.3 4847.33,-141.8 4837.33,-138.3 4837.33,-145.3"/>
</g>
<!-- FoodCategoryService -->
<g id="node52" class="node">
<title>FoodCategoryService</title>
<ellipse fill="#fdb462" stroke="black" cx="812" cy="-66.8" rx="95.49" ry="18"/>
<text text-anchor="middle" x="812" y="-62.6" font-family="Times,serif" font-size="14.00">FoodCategoryService</text>
</g>
<!-- FoodCategoryService&#45;&gt;AppModule -->
<g id="edge51" class="edge">
<title>FoodCategoryService&#45;&gt;AppModule</title>
<path fill="none" stroke="black" d="M812,-85.05C812,-107.82 812,-143.8 812,-143.8 812,-143.8 4837.32,-143.8 4837.32,-143.8"/>
<polygon fill="black" stroke="black" points="4837.32,-147.3 4847.32,-143.8 4837.32,-140.3 4837.32,-147.3"/>
</g>
<!-- FoodOrderService -->
<g id="node53" class="node">
<title>FoodOrderService</title>
<ellipse fill="#fdb462" stroke="black" cx="616" cy="-66.8" rx="82.22" ry="18"/>
<text text-anchor="middle" x="616" y="-62.6" font-family="Times,serif" font-size="14.00">FoodOrderService</text>
</g>
<!-- FoodOrderService&#45;&gt;AppModule -->
<g id="edge52" class="edge">
<title>FoodOrderService&#45;&gt;AppModule</title>
<path fill="none" stroke="black" d="M616,-84.89C616,-107.93 616,-144.8 616,-144.8 616,-144.8 4837.05,-144.8 4837.05,-144.8"/>
<polygon fill="black" stroke="black" points="4837.05,-148.3 4847.05,-144.8 4837.05,-141.3 4837.05,-148.3"/>
</g>
<!-- FoodService -->
<g id="node54" class="node">
<title>FoodService</title>
<ellipse fill="#fdb462" stroke="black" cx="456" cy="-66.8" rx="59.69" ry="18"/>
<text text-anchor="middle" x="456" y="-62.6" font-family="Times,serif" font-size="14.00">FoodService</text>
</g>
<!-- FoodService&#45;&gt;AppModule -->
<g id="edge53" class="edge">
<title>FoodService&#45;&gt;AppModule</title>
<path fill="none" stroke="black" d="M456,-85.12C456,-108.46 456,-145.8 456,-145.8 456,-145.8 4837.25,-145.8 4837.25,-145.8"/>
<polygon fill="black" stroke="black" points="4837.25,-149.3 4847.25,-145.8 4837.25,-142.3 4837.25,-149.3"/>
</g>
<!-- OrderStatusService -->
<g id="node55" class="node">
<title>OrderStatusService</title>
<ellipse fill="#fdb462" stroke="black" cx="292" cy="-66.8" rx="86.23" ry="18"/>
<text text-anchor="middle" x="292" y="-62.6" font-family="Times,serif" font-size="14.00">OrderStatusService</text>
</g>
<!-- OrderStatusService&#45;&gt;AppModule -->
<g id="edge54" class="edge">
<title>OrderStatusService&#45;&gt;AppModule</title>
<path fill="none" stroke="black" d="M292,-85.18C292,-109.08 292,-147.8 292,-147.8 292,-147.8 4837.14,-147.8 4837.14,-147.8"/>
<polygon fill="black" stroke="black" points="4837.14,-151.3 4847.14,-147.8 4837.14,-144.3 4837.14,-151.3"/>
</g>
<!-- SupervisorService -->
<g id="node56" class="node">
<title>SupervisorService</title>
<ellipse fill="#fdb462" stroke="black" cx="106" cy="-66.8" rx="81.66" ry="18"/>
<text text-anchor="middle" x="106" y="-62.6" font-family="Times,serif" font-size="14.00">SupervisorService</text>
</g>
<!-- SupervisorService&#45;&gt;AppModule -->
<g id="edge55" class="edge">
<title>SupervisorService&#45;&gt;AppModule</title>
<path fill="none" stroke="black" d="M106,-85C106,-109.16 106,-148.8 106,-148.8 106,-148.8 4837.29,-148.8 4837.29,-148.8"/>
<polygon fill="black" stroke="black" points="4837.29,-152.3 4847.29,-148.8 4837.29,-145.3 4837.29,-152.3"/>
</g>
</g>
</svg>
